<?xml version="1.0" encoding="utf-8"?>
<!-- Generator: Adobe Illustrator 16.2.0, SVG Export Plug-In . SVG Version: 6.00 Build 0)  -->
<!DOCTYPE svg PUBLIC "-//W3C//DTD SVG 1.1//EN" "http://www.w3.org/Graphics/SVG/1.1/DTD/svg11.dtd">
<svg version="1.1" id="레이어_1" xmlns="http://www.w3.org/2000/svg" xmlns:xlink="http://www.w3.org/1999/xlink" x="0px"
	 y="0px" width="595.28px" height="841.89px" viewBox="0 0 595.28 841.89" enable-background="new 0 0 595.28 841.89"
	 xml:space="preserve">
<path fill-rule="evenodd" clip-rule="evenodd" fill="#371920" d="M286.094,450.083c0,0-0.143,0.058-0.145,0.059
	c-2.52-1.997-5.038-3.995-7.556-5.994c-0.391-0.306-0.783-0.611-1.174-0.917l0.262,0.052l0.054-0.262
	c-0.525-0.81-0.88-1.796-2.029-1.959l0.372-0.119l-0.11-0.375c-1.01-1.714-2.021-3.427-3.032-5.141
	c-3.462-9.803-3.313-19.53,0.612-29.179c3.369-4.751,7.056-9.212,12.361-11.91c10.868-5.527,21.003-3.964,30.468,3.39
	c1.346,1.557,2.69,3.112,4.035,4.668c5.068,8.144,6.211,17.079,5.332,26.419c-1.992,4.298-3.625,8.789-6.595,12.58
	c-1.522,1.677-3.046,3.353-4.567,5.029c-3.77,2.044-7.538,4.088-11.306,6.132c-5.092-0.733-10.358,0.009-15.328-1.787l-0.473,0.063
	c0,0,0.057,0.474,0.057,0.473C287.437,450.374,286.737,450.258,286.094,450.083z"/>
</svg>
