<?xml version="1.0" encoding="utf-8"?>
<!-- Generator: Adobe Illustrator 16.2.0, SVG Export Plug-In . SVG Version: 6.00 Build 0)  -->
<!DOCTYPE svg PUBLIC "-//W3C//DTD SVG 1.1//EN" "http://www.w3.org/Graphics/SVG/1.1/DTD/svg11.dtd">
<svg version="1.1" id="레이어_1" xmlns="http://www.w3.org/2000/svg" xmlns:xlink="http://www.w3.org/1999/xlink" x="0px"
	 y="0px" width="612px" height="792px" viewBox="0 0 612 792" enable-background="new 0 0 612 792" xml:space="preserve">
<g>
	<path fill-rule="evenodd" clip-rule="evenodd" fill="#371921" d="M107,367c0-38.702,0.066-77.405-0.11-116.107
		c-0.016-3.607,0.967-4.089,4.194-3.98C119.048,247.18,127.027,247,135,247c0.238,1.894,1.538,2.777,3.128,3.538
		c4.684,2.238,4.672,2.472,0.726,6.199c-2.861,2.703-6.804,5.159-6.586,9.438c0.267,5.241-3.61,8.91-3.994,13.822
		c-0.273,3.495-2.147,6.22-6.062,6.986c-2.978,0.582-3.946,2.554-3.575,5.543c0.313,2.518,3.317,5.392-0.815,7.587
		c-0.574,0.306,0.357,1.479,0.965,2.034c4.696,4.286,7.742,9.09,4.232,16.705c5.072-3.823,5.324-0.09,5.925,2.472
		c1.6-0.236,2.371-1.308,2.254-2.112c-0.645-4.445,2.35-5.19,5.56-6.458c3.684-1.455,6.274-4.112,8.486-7.854
		c2.456-4.157,4.216-10.048,10.835-10.34c0.83-0.037,1.877-0.908,2.379-1.682c3.143-4.845,9.572-6.849,11.193-13.043
		c0.208-0.795,1.308-1.656,2.172-1.933c7.05-2.26,12.4-7.805,19.094-10.329c6.569-2.478,11.591-6.909,17.38-10.34
		c4.12-2.442,6.529-5.772,7.703-10.233c95.666,0,191.334,0.023,287-0.096c3.424-0.004,4.105,0.671,4.098,4.096
		C506.959,306,507,361,507,416c-2.086,0.416-3.376,2.019-4.859,3.309c-10.374,9.023-21.143,17.573-32.442,25.378
		c-16.821,11.619-33.96,22.776-51.415,33.431c-1.59,0.971-2.954,2.844-5.271,1.872c3.832-4.882,10.162-6.566,14.241-11.131
		c3.238-0.235,5.998-1.077,6.337-4.991c1.555-0.965,2.659-2.349,3.608-3.876c2.049-0.829,2.004-2.922,2.743-4.541
		c0.367-0.183,0.734-0.364,1.101-0.546c3.222-3.275,6.161-6.596,8.609-10.682c3.571-5.959,5.508-13.528,12.904-16.641
		c0.873-0.367,0.631-1.438,0.942-2.158c3.006-6.973,0.844-14.463,2.253-21.664c1.192-6.09,1.502-12.601-2.666-18.177
		c-0.78-1.043-0.688-2.187-0.018-3.277c1.318-2.149,0.835-4.473-0.405-6.154c-3.442-4.667-1.29-11.803-6.969-15.379
		c0.05-9.653-9.652-14.914-10.846-24.021c-0.055-0.42-0.534-1.061-0.896-1.12c-2.643-0.438-2.746-2.408-3.509-4.486
		c-1.022-2.783-4.276-3.484-6.93-4.302c-1.289-0.396-1.26,1.166-1.44,2.101l-0.138,0.14c-3.308-0.297-5.871-1.835-7.927-4.448
		c-4.972-6.318-12.018-8.06-19.55-8.647c-0.575-0.394-1.149-0.786-1.72-1.179c-0.441-0.308-0.887-0.616-1.332-0.925
		c-0.67-0.561-1.42-0.807-2.289-0.585c-2.107-1.603-4.68-1.729-7.129-2.246l-0.047-0.048c-0.061-0.511-0.123-1.021-0.863-0.779
		c-5.803-3.334-11.958-5.489-18.579-6.789c-9.129-1.792-17.996-4.843-27.267-6.011c-0.795-0.163-1.594-0.38-2.408-0.485
		c-26.9-3.46-53.729-1.314-80.511,1.38c-7.015,0.706-14.277,1.113-20.745,4.635c-7.797,0.129-13.769,4.865-20.351,8.066
		c-1.305-0.012-2.67-0.381-3.786,0.667c-0.402,0.327-1.076,0.529-0.585,1.268l-0.105-0.159c-8.13,2.369-14.038,8.188-20.473,13.19
		c-5.698,2.623-8.332,8.643-13.343,12.023c-2.232,0.312-3.414,1.74-4.017,3.782c-0.365,0.382-0.729,0.763-1.094,1.145
		c-5.022,4.612-8.796,10.285-13.118,15.491c-1.949,2.348-4.511,4.35-4.948,7.689c-0.257,0.17-0.44,0.398-0.548,0.687
		c-5.544,4.9-11.062,9.834-16.644,14.693c-5.701,4.962-7.631,12.163-5.851,19.183c0.536,2.112,3.455,6.533-2.679,6.614
		c-1.162,0.016-1.664,1.32-1.209,2.281c2.807,5.93,3.044,13.232,9.195,17.389c6.052,6.105,10.917,13.414,18.356,18.115
		c1.335,3.148,6.053,2.979,6.685,6.816c-1.209-0.348-2.854-1.276-2.22,1.304c0.326,1.327,2.09,2.225,1.237,4.023
		c-2.361,0.45-3.889-1.674-5.996-1.908c-7.87-0.877-13.252-5.24-17.782-11.565c-4.169-5.82-8.282-12.105-16.48-13.255
		c-2.733-0.383-4.644-2.554-6.145-4.762c-1.74-2.56-4.017-4.344-6.743-5.661c-1.958-0.454-3.766-1.736-5.926-1.072c0-9,0-18,0-27
		c0.456-1.928,0.912-3.855,1.368-5.783c4.395-4.56,9.847-6.951,15.988-8.202c2.909-0.593,6.041-1.337,8.425-2.962
		c3.269-2.229,8.443-1.384,10.054-6.188l0.042-0.028c2.567-0.46,5.257-0.746,5.778-4.094l0.112-0.079
		c2.081,0.163,2.996-0.857,2.923-2.88l0.1-0.089c1.328,0.07,1.98-0.552,1.938-1.888l0.087-0.093
		c3.554,0.259,5.214-1.363,4.905-4.939c0.377-0.303,0.755-0.605,1.133-0.908c0.748-0.287,1.703-0.372,2.21-0.894
		c4.816-4.951,9.554-9.979,14.32-14.979c1.069-1.121,1.703-2.409,1.631-3.992c1.911-1.762,3.821-3.523,5.732-5.285
		c3.689-0.671,5.991-3.115,7.848-6.132c1.4-0.961,2.8-1.923,4.201-2.884c2.458,0.556,4.549-0.298,6.545-1.64
		c6.039-4.062,12.168-7.966,19.043-10.514c1.814-0.672,2.648-1.894,2.304-3.842c6.658-3.374,13.981-4.776,21.001-7.08
		c2.745,0.323,5.199-0.982,7.804-1.381c6.739-1.03,12.619-5.271,19.684-5.081c6.597,0.178,12.908-2.349,19.737-1.578
		c3.041,0.343,6.101,1.221,9.181,1.192c8.792-0.078,17.578-0.185,26.321,0.993c1.396,0.188,2.671-0.001,3.531-1.287
		c1.961-2.928,4.165-2.897,6.638-0.622c1.272,1.171,3.46,2.369,4.476,1.753c5.313-3.225,8.986,1.212,13.402,2.228
		c9.348,2.149,18.801,3.844,28.209,5.738c1.016,0.205,2.057,0.387,2.652-0.67c0.593-1.05-0.007-1.959-0.783-2.633
		c-1.582-1.372-3.469-2.075-5.544-1.688c-2.195,0.41-3.906-0.449-5.552-1.663c-0.787-0.582-1.91-1.12-1.665-2.264
		c0.314-1.464,1.615-1.52,2.817-1.287c3.401,0.658,5.695-1.428,8.002-3.296c1.063-0.86,1.6-2.314,0.738-3.606
		c-1.043-1.565-1.833-0.308-2.758,0.411c-1.107,0.861-1.934,0.07-2.25-0.957c-2.376-7.721-9.155-8.857-15.475-9.325
		c-7.354-0.544-11.473-8.122-18.959-7.696c-0.049,0.003-0.078-0.398-0.178-0.434c-2.366-0.828-4.118-3.562-6.729-3.134
		c-8.056,1.32-15.977-1.008-23.86-1.422c-16.701-0.879-33.121-1.305-49.512,2.187c-10.721,2.284-21.48,4.456-31.651,8.745
		c-5.818,1.159-11.458,2.894-16.909,5.235c-16.452,5.153-30.698,14.188-43.901,25.029c-20.651,16.956-36.689,38.339-55.083,57.462
		C113.886,360.888,111.582,365.172,107,367z M128.026,393.06c1.203-0.519,0.625-1.007-0.025-1.494
		c-1.348-2.692-2.09-0.504-2.995,0.372c-1.579,1.201-1.89,2.799-2.005,4.743c-0.348,5.831,2.367,10.275,5.933,14.429
		c0.22,0.567,0.482,1.231,1.203,1.065c0.745-0.171,0.662-0.853,0.51-1.456c-0.156-2.203-0.312-4.406-0.468-6.608
		c0.241-0.156,0.482-0.313,0.724-0.469c-0.334-0.183-0.667-0.365-1.001-0.548c-3.065-2.919-1.678-6.636-1.806-10.081L128.026,393.06
		z M117.747,403.828c-3.546-0.207-3.588-0.187-3.842,1.838c-0.388,3.085,3.461,8.797,6.44,9.518c1.971,0.477,3.732,0.23,4.382-2.006
		C125.482,410.576,120.483,403.988,117.747,403.828z M282.072,290.336l-0.262,0.135l0.258,0.142L282.072,290.336z"/>
	<path fill-rule="evenodd" clip-rule="evenodd" fill="#664340" d="M112.926,420.072c2.726,1.317,5.003,3.102,6.743,5.661
		c1.501,2.208,3.412,4.379,6.145,4.762c8.199,1.149,12.312,7.435,16.48,13.255c4.53,6.325,9.913,10.688,17.782,11.565
		c2.107,0.234,3.635,2.358,5.996,1.908c0.853-1.799-0.911-2.696-1.237-4.023c-0.634-2.58,1.011-1.651,2.221-1.303
		c11.096,11.402,24.422,20.212,36.03,31.018c0.385,0.943,1.086,1.218,2.038,0.96l0.154-0.232c-0.191,2.962,1.448,3.595,3.963,3.115
		l0.02-0.134c-0.265,1.595,0.479,2.229,2.012,2.113l-0.049-0.049c0.265,2.3,1.932,2.907,3.861,3.198
		c4.244,1.673,7.844,4.404,11.522,7.007c2.329,2.836,5.798,3.73,8.901,5.259c8.417,4.146,17.645,5.373,26.635,7.458
		c2.312-0.465,4.574-0.295,6.913,0.084c5.574,0.903,11.168,1.816,16.859,1.461c10.665,1.864,21.401-0.477,32.079,0.545
		c-3.391,2.676-7.648,0.34-11.282,2.195c6.383-1.076,11.822,4.748,18.405,2.188c0.765-0.297,1.883-0.069,2.175,0.761
		c0.894,2.549,3.159,1.909,4.97,2.399c4.152,1.125,8.205-0.731,12.345-0.346c1.876,0.176,4.243-1.149,5.284,1.314
		c1.043,2.467-2.982,1.689-2.861,3.804l-0.043-0.044c1.151-0.104,2.327-0.092,3.451-0.328c11.524-2.432,22.457-6.661,33.441-10.806
		c6.176-2.33,11.794-5.975,18.275-7.522c-1.813,2.919-3.836,5.801-7.266,6.784c-11.838,3.396-22.313,10.045-34.934,12.1
		c-14.667,2.388-29.104,5.477-44.066,4.946c-7.289-0.258-14.545-0.651-21.718-2.04c-0.557-2.889-2.522-3.361-5.152-3.476
		c-12.011-0.523-23.992-1.323-35.789-3.947c-15.095-3.359-28.938-9.688-42.142-17.52c-7.125-4.227-14.068-8.761-21.093-13.156
		c-0.29-0.33-0.58-0.66-0.87-0.991c-0.115,0.169-0.229,0.337-0.344,0.505c0.409,0.157,0.817,0.315,1.226,0.473
		c0.46,1.115,0.92,2.23,1.38,3.346c-1.858,0.846-3.617-0.001-5.407-0.316c-0.204-0.926-0.386-1.909-1.426-2.25
		c-0.563-0.185-0.966,0.227-0.785,0.787c0.338,1.049,1.335,1.207,2.252,1.422c0.414,2.586,1.693,4.751,3.691,6.327
		c4.589,3.621,10.106,6.418,10.293,13.482c0.02,0.751,1.714,2.14,2.549,2.08c7.033-0.502,9.435,6.289,14.438,8.89
		c2.307,1.199,2.735,4.051,5.215,5.196c8.975,4.146,17.286,9.723,27.117,12.026c3.271,0.767,6.709,1.755,8.675,5.017
		c-16.333,0-32.667,0-49,0c0.072-3.349,0.005-6.55-4.898-4.6c-7.051-5.488-14.977-10.107-18.498-19.056
		c-0.72-1.83-1.423-4.139-2.879-5.125c-6.087-4.123-8.1-11.147-12.295-16.589c-3.352-4.35-8.254-7.741-9.462-13.606l0.054-0.054
		c2.411-2.395,0.167-3.752-1.46-4.269c-1.719-0.547-3.261-1.223-3.978-2.672c-2.79-5.636-8.505-8.827-11.61-14.182
		c-0.462-0.798-1.712-1.977-2.166-1.809c-4.056,1.501-4.985-1.858-6.628-4.396c-1.456,1.316-2.423,5.21-4.532,0.648
		c-0.795-1.722-3.537-1.777-5.481-1.541c-1.275,0.155-1.689,1.724-1.143,2.836c1.313,2.672,1.482,4.869-1.125,6.991
		c-1.08,0.879-0.163,2.354,0.178,3.67c1.831,7.074,4.557,13.723,4.224,21.556c-0.381,8.973,2.103,17.98,6.938,25.994
		c2.493,4.132,4.206,8.641,5.769,13.197l-0.011,0.011c-1.084,0-2.169,0-3.253,0c-8.003-11.889-13.145-24.828-14.604-39.171
		c-1.075-10.568-1.715-21.339-7.557-30.647c-2.382-3.796-2.66-9.107-7.581-11.188c0-2.667,0-5.333,0-8
		c3.316-0.299,6.829,1.117,9.908-1.564c0.698-0.607,2.552-0.051,3.83,0.197c6.323,1.224,11.822,4.938,18.191,6.074
		c0.894,0.159,1.737,1.31,2.62,0.208c0.702-0.878,0.383-1.947-0.148-2.809c-1.412-2.288-3.172-4.27-5.49-5.694
		c-7.393-4.545-15.048-8.634-21.973-13.978C110.654,424.9,110.17,422.962,112.926,420.072z M125.535,486.135
		c-0.021,0.227-0.041,0.453-0.062,0.68c0.094-0.104,0.255-0.202,0.264-0.313C125.747,486.386,125.611,486.258,125.535,486.135z"/>
	<path fill-rule="evenodd" clip-rule="evenodd" fill="#371921" d="M185.981,494.022c1.79,0.315,3.549,1.162,5.405,0.32
		c-0.001,0.003,0.178,0.354,0.178,0.354c-0.629,2.304,0.914,3.431,2.554,4.271c2.573,1.319,4.686,3.18,6.548,5.297
		c3.742,4.257,9.888,4.226,13.932,7.99c1.015,0.945,2.543,0.224,3.592-0.782c24.279,10.395,49.017,18.811,75.981,17.633
		c7.173,1.389,14.429,1.782,21.718,2.04c14.963,0.53,29.399-2.559,44.066-4.946c12.621-2.055,23.096-8.703,34.934-12.1
		c3.43-0.983,5.453-3.865,7.266-6.785c1.612-0.74,3.226-1.479,4.839-2.22c1.291,0.86,1.753,0.071,2.058-1.033
		c2.012-0.992,4.023-1.984,6.035-2.977c1.625-0.047,3.261-0.07,4.011-1.932c3.986-2.365,7.974-4.73,11.96-7.095
		c2.869-0.395,5.623-0.986,6.952-4.034l0.015-0.011c5.965-1.379,12.521-1.04,17.151-6.244c1.07-1.202,2.756-2.154,4.466-1.031
		c2.126,1.396-1.345,2.306-0.386,3.847c0.556,0,1.426,0.271,1.777-0.041c4.039-3.588,8.976-5.273,13.973-6.902
		c0.894-0.291,1.657-1.072,2.398-1.721c6.005-5.253,10.515-11.859,15.88-17.695c1.294-1.407,2.969-4.103,2.019-5.322
		c-2.937-3.77-0.426-6.766,0.463-10.047l0.143-0.094c2.247,0.433,3.533-1.089,4.996-2.364c2.046-1.785,3.431-4.318,6.097-5.398
		c0,20,0,40,0,60c-2.163-0.063-4.313-0.162-6.395,0.697c-3.442,1.42-6.708,2.799-10.724,3.028c-2.66,0.152-6.062-0.742-8.58,1.296
		c-7.519,6.084-17.244,6.931-25.698,10.838c-6.136,2.836-12.787,4.276-19.685,4.836c-8.812,0.715-15.816,7.307-24.571,8.455
		c-8.219,1.077-14.711,7.067-23.365,7.355c-8.563,0.286-16.06,5.28-24.246,7.574c-3.148,0.882-5.882-0.537-8.795,0.257
		c-7.188,1.959-8.299,1.872-14.595-0.246c-0.274-0.093-0.736-0.112-0.908,0.05c-3.571,3.359-8.027,0.896-11.925,1.854
		c-5.704,1.401-12.831-0.971-16.514,6.006c-2,0-4,0-6,0c-0.333,0-0.667,0-1,0s-0.667,0-1,0c-3.823-2.923-7.856-2.923-11,0
		c-0.667,0-1.333,0-2,0c-0.198-1.988-1.537-2.69-3.284-3.142c-5.137-1.324-9.132,2.162-13.716,3.142c-5,0-10,0-15,0
		c-1.966-3.262-5.404-4.25-8.675-5.017c-9.831-2.304-18.142-7.88-27.117-12.026c-2.479-1.146-2.908-3.997-5.215-5.196
		c-5.003-2.601-7.405-9.392-14.438-8.89c-0.835,0.06-2.529-1.329-2.549-2.08c-0.187-7.064-5.704-9.861-10.293-13.482
		c-1.998-1.576-3.277-3.741-3.691-6.327L185.981,494.022z"/>
	<path fill-rule="evenodd" clip-rule="evenodd" fill="#957F69" d="M183.747,328.717c-1.911,1.762-3.821,3.523-5.732,5.285
		c-1.706,1.296-3.751,2.317-5.055,3.937c-4.313,5.357-10.707,9.011-13.106,15.928c-0.378,0.303-0.755,0.605-1.131,0.909
		c-2.223,1.062-3.774,2.792-4.907,4.938c0,0-0.087,0.093-0.085,0.094c-1.062,0.201-1.717,0.821-1.939,1.887
		c0,0-0.1,0.089-0.098,0.09c-1.639,0.285-2.604,1.254-2.925,2.879c0,0-0.112,0.079-0.11,0.081c-2.305,0.828-5.187,0.843-5.78,4.092
		c0,0-0.042,0.028-0.042,0.029c-7.23,2.675-14.537,4.968-22.166,6.395c-3.54,0.662-6.713,3.282-10.644,1.73
		c-1.009-0.397-2.042,0.562-1.667,0.992c2.467,2.832-0.541,5.52,0.008,8.234c-0.456,1.928-0.912,3.855-1.368,5.783c0-7,0-14,0-21
		c1.633-0.714,1.635,3.649,4.236,1.043c7.768-7.785,15.006-16.025,21.861-24.596c6.835-8.544,13.378-17.322,20.084-25.971
		c2.338-3.015,4.897-5.595,8.985-6.395c2.189-0.429,4.356-1.497,6.036-3.306c6.237-6.713,13.853-11.716,21.175-17.109
		c3.327-2.45,8.028-2.17,10.618-4.945c3.371-3.612,7.439-5.056,11.726-6.683c2.4-0.911,5.205-1.253,7.288-3.734
		c-2.18-0.665-2.955-2.212-2.953-4.221c5.452-2.342,11.091-4.076,16.909-5.234c-0.911,1.873-2.857,2.595-4.31,3.863
		c-1.204,1.052-1.551,2.231-0.321,3.397c1.221,1.157,1.652-0.268,2.57-0.71c3.178-1.529,6.128-3.25,8.803-5.563
		c0.945-0.816,1.826,0.01,2.218,1.104c-0.084,0.072-0.169,0.144-0.255,0.215c0.056,0.056,0.111,0.111,0.167,0.167
		c0.072-0.085,0.144-0.169,0.216-0.254c7.639-5.013,15.53-7.96,24.481-3.224c0.633,0.335,1.84,0.291,2.426-0.103
		c3.463-2.328,5.972,0.157,8.935,1.31c4.563,1.774,2.994,3.82,0.774,6.159c-0.331,0.348-1.051,0.456-1.196,0.828
		c-1.321,3.383-1.295,3.393-5.034,3.468c-6.197,0.124-7.727,1.661-8.475,8.512l0.055-0.055c-3.473,0.865-7.156,1.271-10.36,2.729
		c-3.068,1.395-7.556,0.509-8.974,4.931c-7.019,2.306-14.342,3.708-21,7.084c-10.208,3.741-20.122,7.998-27.893,15.993
		c-1.4,0.961-2.801,1.923-4.198,2.887C187.936,323.291,185.024,324.957,183.747,328.717z"/>
	<path fill-rule="evenodd" clip-rule="evenodd" fill="#664340" d="M311,547c3.683-6.977,10.81-4.604,16.514-6.006
		c3.897-0.957,8.354,1.506,11.925-1.854c0.172-0.162,0.634-0.143,0.908-0.05c6.296,2.118,7.407,2.205,14.595,0.246
		c2.913-0.794,5.646,0.625,8.795-0.257c8.187-2.294,15.684-7.288,24.246-7.574c8.654-0.288,15.146-6.278,23.365-7.355
		c8.755-1.148,15.76-7.74,24.571-8.455c6.897-0.56,13.549-2,19.685-4.836c8.454-3.907,18.18-4.754,25.698-10.838
		c2.519-2.038,5.92-1.144,8.58-1.296c4.016-0.229,7.281-1.608,10.724-3.028c2.082-0.859,4.231-0.761,6.395-0.697
		c0,7.333,0,14.667,0,22c-5.141,6.021-11.349,10.837-17.254,16.03c-3.584,3.151-5.584,8.324-10.049,11.143
		c-0.354,0.224,0.181,1.852,0.303,2.827c-16,0-32,0-48,0c0.928-2.787,3.112-5.576-0.048-8.349c-1.134-0.994-0.795-2.413-0.982-3.677
		c0.388-0.206,0.775-0.411,1.163-0.617c-0.154-0.161-0.31-0.321-0.464-0.482c-0.215,0.385-0.431,0.77-0.646,1.154
		c-4.229-0.141-8.119,0.267-11.41,3.644c-1.731,1.776-4.55,3.814-6.694,3.629c-7.003-0.608-13.345,2.544-20.133,2.676
		c-1.855,0.036-3.716,0.108-4.786,2.022C362.334,547,336.666,547,311,547z"/>
	<path fill-rule="evenodd" clip-rule="evenodd" fill="#957F69" d="M136.741,534.007c1.084,0,2.169,0,3.253,0l0.206,0.221
		l-0.195-0.231c-1.563-4.557-3.275-9.065-5.769-13.197c-4.836-8.014-7.32-17.021-6.938-25.994
		c0.333-7.833-2.393-14.481-4.224-21.556c-0.341-1.316-1.258-2.791-0.178-3.67c2.608-2.122,2.439-4.319,1.125-6.991
		c-0.547-1.112-0.132-2.681,1.143-2.836c1.944-0.236,4.686-0.181,5.481,1.541c2.109,4.562,3.076,0.668,4.532-0.648
		c1.643,2.537,2.572,5.896,6.628,4.396c0.453-0.168,1.704,1.011,2.166,1.809c3.105,5.354,8.821,8.546,11.61,14.182
		c0.717,1.449,2.259,2.125,3.978,2.672c1.626,0.517,3.871,1.874,1.46,4.27l-0.276-0.217l0.223,0.27
		c1.208,5.865,6.11,9.257,9.462,13.606c4.195,5.441,6.208,12.466,12.295,16.589c1.457,0.986,2.159,3.295,2.879,5.125
		c3.521,8.948,11.447,13.567,18.498,19.056c4.904-1.95,4.97,1.251,4.898,4.6c-22,0-44,0-66,0
		C140.086,543.067,139.022,538.244,136.741,534.007z"/>
	<path fill-rule="evenodd" clip-rule="evenodd" fill="#957F69" d="M415.086,501.085c-2.012,0.992-4.023,1.984-6.035,2.977
		c-0.861-0.006-1.564,0.306-2.058,1.033c-1.613,0.74-3.227,1.479-4.839,2.22c-6.481,1.549-12.1,5.193-18.275,7.523
		c-10.984,4.145-21.917,8.374-33.441,10.806c-1.124,0.236-2.3,0.225-3.451,0.328l0.043,0.044c-0.121-2.114,3.904-1.337,2.861-3.804
		c-1.041-2.464-3.408-1.139-5.284-1.314c-4.14-0.386-8.192,1.471-12.345,0.346c-1.811-0.49-4.076,0.149-4.97-2.399
		c-0.292-0.83-1.41-1.058-2.175-0.761c-6.583,2.561-12.022-3.264-18.405-2.188c3.634-1.855,7.892,0.48,11.282-2.194
		c0.016-0.253,0.072-0.497,0.17-0.731c2.852,0.01,5.702,0.02,8.553,0.03c8.565-1.119,17.174-2.011,25.414-4.834
		c5.383-2.652,11.193-3.87,17.011-5.064c6.222-1.032,11.712-3.775,16.903-7.218c9.184-4.048,18.07-8.614,25.976-14.894l-0.036,0.027
		c0.727,0.057,1.28-0.06,1.005-1.006l0.023-0.022c2.316,0.972,3.681-0.901,5.271-1.872c17.455-10.654,34.594-21.812,51.415-33.431
		c11.3-7.805,22.068-16.354,32.442-25.378c1.483-1.29,2.773-2.893,4.859-3.309c0,5.667,0,11.333,0,17
		c-4.946,1.835-7.673,6.192-11.093,9.763c0,0-0.143,0.094-0.141,0.094c-1.725,0.39-2.77,1.756-4.015,2.821
		c-15.715,13.447-32.102,26.042-48.668,38.409c-1.71,1.277-3.807,2.061-5.061,3.927l-0.015,0.011
		c-2.665,0.744-5.14,1.819-6.952,4.034c-3.986,2.364-7.974,4.729-11.96,7.095C417.445,499.144,416.094,499.758,415.086,501.085z"/>
	<path fill-rule="evenodd" clip-rule="evenodd" fill="#664340" d="M216,247c-1.173,4.461-3.583,7.791-7.703,10.233
		c-5.789,3.431-10.811,7.862-17.38,10.34c-6.694,2.524-12.043,8.069-19.094,10.329c-0.864,0.276-1.964,1.138-2.172,1.933
		c-1.621,6.194-8.05,8.198-11.193,13.043c-0.501,0.773-1.549,1.645-2.379,1.682c-6.619,0.292-8.379,6.183-10.835,10.34
		c-2.212,3.742-4.802,6.399-8.486,7.854c-3.209,1.268-6.205,2.013-5.56,6.458c0.117,0.805-0.654,1.876-2.254,2.112
		c-0.601-2.562-0.853-6.295-5.925-2.472c3.51-7.615,0.463-12.419-4.232-16.705c-0.608-0.555-1.539-1.729-0.965-2.034
		c4.132-2.195,1.127-5.069,0.815-7.587c-0.371-2.989,0.597-4.961,3.575-5.543c3.915-0.767,5.789-3.491,6.062-6.986
		c0.383-4.912,4.26-8.581,3.994-13.822c-0.218-4.278,3.725-6.734,6.586-9.438c3.946-3.728,3.958-3.961-0.726-6.199
		c-1.59-0.761-2.89-1.645-3.128-3.538C162,247,189,247,216,247z"/>
	<path fill-rule="evenodd" clip-rule="evenodd" fill="#371921" d="M136.741,534.007c2.281,4.237,3.345,9.061,6.259,12.993
		c-11,0-22.001-0.09-32.999,0.068c-2.505,0.036-3.074-0.568-3.066-3.068c0.1-30.333,0.065-60.667,0.065-91
		c4.921,2.081,5.198,7.393,7.581,11.188c5.842,9.309,6.482,20.079,7.557,30.647C123.596,509.179,128.738,522.118,136.741,534.007z"
		/>
	<path fill-rule="evenodd" clip-rule="evenodd" fill="#664340" d="M216.056,275.084c-0.002,2.009,0.772,3.556,2.953,4.221
		c-2.083,2.481-4.887,2.823-7.288,3.734c-4.287,1.627-8.355,3.07-11.726,6.683c-2.59,2.775-7.292,2.495-10.618,4.945
		c-7.323,5.394-14.938,10.396-21.175,17.109c-1.68,1.809-3.847,2.877-6.036,3.306c-4.087,0.8-6.647,3.38-8.985,6.395
		c-6.706,8.648-13.249,17.427-20.084,25.971c-6.855,8.57-14.093,16.811-21.861,24.596c-2.601,2.606-2.603-1.757-4.236-1.043
		c0-1.333,0-2.667,0-4c4.582-1.828,6.886-6.112,10.072-9.425c18.394-19.123,34.432-40.506,55.083-57.462
		C185.358,289.272,199.604,280.237,216.056,275.084z"/>
	<path fill-rule="evenodd" clip-rule="evenodd" fill="#371921" d="M480,547c-0.122-0.976-0.656-2.604-0.303-2.827
		c4.465-2.818,6.465-7.991,10.049-11.143c5.905-5.193,12.113-10.01,17.254-16.03c0,9.167-0.089,18.335,0.065,27.499
		c0.036,2.153-0.412,2.61-2.566,2.566C496.335,546.902,488.167,547,480,547z"/>
	<path fill-rule="evenodd" clip-rule="evenodd" fill="#957F69" d="M112.926,420.072c-2.755,2.89-2.271,4.828,1.012,7.362
		c6.925,5.344,14.58,9.433,21.973,13.978c2.318,1.425,4.078,3.406,5.49,5.694c0.531,0.861,0.85,1.931,0.148,2.809
		c-0.882,1.102-1.726-0.049-2.62-0.208c-6.37-1.137-11.869-4.851-18.191-6.074c-1.278-0.248-3.132-0.805-3.83-0.197
		c-3.079,2.682-6.591,1.266-9.908,1.564c0-8.667,0-17.333,0-26C109.16,418.336,110.968,419.618,112.926,420.072z"/>
	<path fill-rule="evenodd" clip-rule="evenodd" fill="#957F69" d="M388,547c1.07-1.914,2.931-1.986,4.786-2.022
		c6.788-0.132,13.13-3.284,20.133-2.676c2.145,0.186,4.963-1.853,6.694-3.629c3.291-3.377,7.181-3.784,11.41-3.644l-0.055-0.055
		c0.188,1.264-0.15,2.683,0.983,3.677c3.16,2.772,0.976,5.562,0.048,8.349C417.333,547,402.666,547,388,547z"/>
	<path fill-rule="evenodd" clip-rule="evenodd" fill="#664340" d="M273,547c4.584-0.979,8.579-4.466,13.716-3.142
		c1.748,0.451,3.086,1.153,3.284,3.142C284.333,547,278.667,547,273,547z"/>
	<path fill-rule="evenodd" clip-rule="evenodd" fill="#664340" d="M495.907,442.763c3.42-3.57,6.146-7.928,11.093-9.763
		c0,0.667,0,1.333,0,2c-2.666,1.08-4.051,3.613-6.097,5.398C499.44,441.674,498.154,443.195,495.907,442.763z"/>
	<path fill-rule="evenodd" clip-rule="evenodd" fill="#664340" d="M292,547c3.144-2.923,7.177-2.923,11,0
		C299.333,547,295.667,547,292,547z"/>
	<path fill-rule="evenodd" clip-rule="evenodd" fill="#664340" d="M304,547c0.333,0,0.667,0,1,0C304.667,547,304.333,547,304,547z"
		/>
	<path fill-rule="evenodd" clip-rule="evenodd" fill="#72A4D2" d="M369.142,503.103c-5.817,1.193-11.628,2.411-17.007,5.061
		c-8.508,1.411-17.191,1.925-25.418,4.837c-2.851-0.011-5.701-0.021-8.555-0.03c-1.76-1.224-3.77-0.908-5.729-0.95
		c-6.529-0.139-13.096,1.365-19.579-0.286c-2.634-0.671-4.853-0.159-6.939,1.422c-5.691,0.355-11.286-0.558-16.859-1.461
		c-2.339-0.379-4.602-0.549-6.912-0.083c-3.234-2.671-7.669-2.417-11.122-4.56c-1.077-2.78-3.25-3.897-6.085-4.008l0.026,0.014
		c-0.092-0.667-0.282-1.213-1.145-0.932c-2.336-0.481-3.103-2.817-4.774-4.132c-5.924-4.657-11.534-9.712-16.068-15.817
		c-0.343-0.394-0.687-0.788-1.03-1.183l0.058,0.057c-0.352-0.353-0.705-0.704-1.057-1.056l0.032,0.059
		c-0.343-0.684-0.687-1.368-1.03-2.052l0.011,0.057c-0.243-1.916-1.387-3.157-3.017-4.035l0.013,0.032
		c-0.357-1.521-0.828-2.951-2.641-3.311c-1.169-1.104-2.167-2.377-0.553-3.726c1.372-1.147,2.785-0.611,3.934,0.65
		c0.999,1.098,2.161,2.08,2.983,3.294c0.81,1.194,1.492,1.256,2.854,0.86c6.479-1.879,12.959-3.763,19.864-3.316
		c2.058,0.133,4.251-2.346,2.888-3.224c-3.618-2.329-4.299-7.783-9.283-8.338c3.145-5.606,8.52-2.325,12.846-3.166
		c3.274-0.635,7.862,1.407,8.104-4.609c0.045-1.132,1.364-0.472,1.979-0.766c4.03-1.928,7.965,2.154,11.702,0.354
		c4.04-1.945,6.853-1.181,9.039,2.764c2.381-5.147,4.839-5.467,8.131-1.437c2.745,3.36,4.463,3.271,7.34-0.396
		c1.753-2.234,3.862-3.622,6.851-2.869c2.687,0.677,4.931,4.971,8.288,1.031c0.08-0.094,1.75,1.3,2.764,1.843
		c2.655,1.425,2.388,4.949,4.245,6.483c1.995-0.02,2.243-4.107,2.638-2.123c0.719,3.609,4.704,3.889,5.074,7.025
		c-0.469,0.454-0.963,1.324-1.401,1.297c-5.483-0.336-9.896,3.363-15.14,3.927c-1.545,0.166-2.852,1.245-2.98,2.916
		c-0.146,1.895,1.57,2.701,2.913,2.854c2.767,0.314,5.716,0.636,8.365,0.007c4.855-1.154,9.616-1.795,14.628-1.369
		c4.052,0.345,8.258,0.346,11.616-2.727c5.106,1.433,9.769,4.089,15.389,4.658c-1.438,2.433-3.447,2.03-4.8,2.929
		c-1.076,0.715-1.643,1.701-1.146,2.975c0.477,1.226,1.512,1.172,2.491,0.725c4.239-1.933,8.831-0.996,13.185-1.716
		c3.752-0.62,5.578,0.631,7.579,3.624c2.708,4.05,4.853,3.896,7.949-0.006c1.012-1.275,1.745-1.885,3.22-0.993
		c1.525,0.923,2.771-0.025,4.203-0.479c4.499-1.424,6.027-5.458,8.301-8.875c4.031-6.06,7.299-12.458,9.546-20.25
		c-3.679,1.896-6.634,2.926-8.894-0.626c10.623-2.1,15.1-6.541,15.797-15.673c0.014-8.176,3.282-15.898,2.94-24.233
		c-0.198-4.857-2.188-5.516-6.02-5.539c-3.813-0.022-7.521-0.623-11.147-2.106c-3.047-1.247-6.438-2.658-9.551-2.41
		c-2.34,0.188-4.172,0.069-6.012-1.044c-3.918-2.371-8.072-3.923-12.691-3.968c-3.365-0.032-5.102-2.095-6.153-4.911
		c-0.454-1.215-0.191-2.719-1.335-3.657c-1.809-1.482-2.669-3.558-0.918-5.117c1.88-1.674,4.46-3.134,7.043-0.654
		c-0.108,2.488-0.223,4.975-0.324,7.463c-0.106,2.593,1.145,4.507,3.707,4.246c7.201-0.731,14.654,0.248,21.48-3.308
		c4.059-2.114,7.68-2.046,10.878,2.296c2.779,3.774,5.879,3.401,8.148-0.832c3.977-7.418,2.757-15.085,0.098-22.652
		c-0.664-7.698-0.717-7.767-8.204-7.279c-1.043,0.068-1.931-0.321-2.883-0.461c-5.346-0.787-13.007,3.518-14.596,8.107
		c-0.414,1.193-1.289,1.595-2.299,1.389c-3.244-0.661-6.913-0.198-9.63-2.279c-3.759-2.879-7.677-2.681-11.853-1.758
		c-6.645,1.471-13.098,2.343-18.617-3.271c-1.757-1.788-4.098-0.278-6.072,0.445c-0.495,0.181-1.102,0.983-1.082,1.479
		c0.08,2.188,2.639,0.555,3.461,2.188c-1.855,1.115-3.633,3.051-5.51,3.151c-6.096,0.328-8.759,5.272-12.705,8.498
		c-1.345-1.556-2.689-3.111-4.035-4.667c0.335-0.978,0.809-1.877,1.903-2.12c2.972-0.66,5.529-2.188,8.087-3.73
		c1.9-1.146,1.806-2.767,0.684-4.233c-1.471-1.921-2.091-0.008-2.928,0.872c-1.783,1.876-3.67,1.95-5.732,0.364
		c-1.802-1.386-3.896-1.629-6.141-1.465c-2.996,0.22-5.982,0.04-8.813-1.159c1.828-2.15,8.371,0.336,5.985-6.063
		c-0.074-0.199,0.953-1.18,1.437-1.157c3.423,0.158,7.322-1.691,9.855,2.461c0.904,1.481,2.426,3.588,4.319,2.256
		c1.373-0.966,3.088-2.893,2.635-4.93c-0.451-2.026-2.539-2.268-4.448-2.482c-2.869-0.324-6.125,0.16-7.858-3.102l0.017,0.104
		c0.313-0.298,0.628-0.596,0.94-0.895c1.795,0.289,3.59,0.563,5.381,0.869c7.586,1.293,14.553,5.622,22.742,4.201
		c2.613-0.453,4.499,1.496,5.25,4.354c0.637,2.426,2.67,4.263,4.723,2.062c4.417-4.739,10.351-5.487,15.981-6.757
		c3.847-0.867,8.04-1.237,10.856,3.304c2.19,3.532,7.861,3.683,11.12,0.984c3.181-2.634,6.246-5.635,10.587-6.139
		c3.43-0.398,3.687-2.318,2.813-4.897c-1.064-3.141-2.3-6.224-3.461-9.331c0.039-1.301,0.03-2.592-0.875-3.668l-0.088-0.125
		c-0.242-1.017-0.858-1.661-1.89-1.89l-0.096-0.128c-0.076-3.001-1.351-5.315-3.937-6.88l-0.065-0.091
		c-0.304-0.305-0.608-0.61-0.913-0.916l-0.074-0.099c-0.315-0.631-0.63-1.262-0.945-1.893l-0.069-0.084
		c-0.233-1.049-0.858-1.707-1.924-1.924l-0.06-0.095c-0.318-0.636-0.637-1.271-0.955-1.906l-0.051-0.045
		c-0.363,0.018-0.726,0.034-1.088,0.052c-2.144-1.458-3.574-3.371-3.856-6.021c2.448,0.518,5.021,0.644,7.124,2.244
		c0.096,1.059,0.781,1.596,1.705,1.925c3.982,5.675,7.767,11.503,11.996,16.988c5.494,7.125,8.834,14.913,8.081,23.984
		c-0.315,3.792-0.049,7.216,1.797,10.577c0.698,1.27,0.932,2.84,1.175,4.306c1.364,8.226,0.901,16.745,3.989,24.693
		c-0.5,6.24-0.984,12.481-1.504,18.72c-0.422,5.063-3.162,10.107-1.88,15.021c1.313,5.036,2.021,9.408-1.509,13.649
		c-1.255,1.508-0.358,2.769,0.523,4.016c0.994,2.319,0.466,4.078-0.95,6.333c-2.431,3.87-6.76,6.647-7.307,11.59
		c-0.297,2.677-2.017,3.915-3.867,5.378c-7.112,5.622-12.811,12.667-19.014,19.202c-2.246,1.472-4.491,2.944-6.737,4.416
		C380.5,497.787,374.082,499.093,369.142,503.103z"/>
	<path fill-rule="evenodd" clip-rule="evenodd" fill="#ACCEE5" d="M310.004,361.924c2.83,1.199,5.816,1.379,8.813,1.159
		c2.244-0.164,4.339,0.079,6.141,1.465c2.063,1.586,3.949,1.512,5.732-0.364c0.837-0.88,1.457-2.793,2.928-0.872
		c1.122,1.467,1.217,3.088-0.684,4.233c-2.558,1.543-5.115,3.07-8.087,3.73c-1.095,0.243-1.568,1.143-1.903,2.119
		c-9.465-7.354-19.601-8.917-30.468-3.39c-5.305,2.698-8.992,7.159-12.361,11.91c-0.654,0.114-1.494,0.009-1.932,0.379
		c-1.897,1.607-4.081-1.752-5.907,0.462c-2.99,3.626-13.496,6.451-16.653,3.347c-4.911-4.83-9.459-1.955-14.238-1.111
		c-10.062,1.777-19.354,7.357-30.054,6.049c-1.868-0.229-3.213,0.641-3.649,2.603c-0.463,0.042-0.925,0.083-1.388,0.125
		c-0.528-0.968-1.108-1.777-2.295-0.761c-4.271,1.208-8.52,0.284-12.773-0.137c1.779-2.586,4.525-4.096,7.446-6.029
		c-3.948-2.308-8.545-3.867-5.434-9.395c2.233-3.969,2.007-8.285,1.845-12.608c-0.089-2.385,0.469-4.507,2.152-6.415
		c1.821-2.064,1.671-2.197-0.719-5.646c-4.48,13.379-6.403,26.654-6.187,40.284c-1.039,15.028,1.719,29.519,6.603,43.615
		c1.994,5.755,3.499,11.791,7.681,16.653c2.093,2.434,5.352,3.091,7.04,2.016c4.139-2.639,7.719-4.606,12.058-0.84
		c5.187-3.302,8.972,1.034,13.294,2.44c4.983,0.555,5.665,6.009,9.283,8.338c1.363,0.878-0.83,3.356-2.888,3.224
		c-6.904-0.446-13.385,1.438-19.864,3.316c-1.363,0.396-2.044,0.334-2.854-0.86c-0.823-1.214-1.984-2.196-2.983-3.294
		c-1.149-1.262-2.562-1.798-3.934-0.65c-1.613,1.349-0.616,2.622,0.551,3.726c0.555,1.362,0.665,3.083,2.643,3.311l-0.013-0.032
		c0.117,2.009,1.078,3.388,3.017,4.035c0,0-0.011-0.057-0.012-0.057c0.344,0.684,0.687,1.368,1.031,2.052l-0.032-0.059
		c0.353,0.352,0.705,0.704,1.057,1.056c0,0-0.058-0.057-0.058-0.056c0.343,0.395,0.687,0.788,1.03,1.182
		c4.534,6.105,10.144,11.16,16.068,15.817c1.671,1.314,2.438,3.65,4.775,4.132c0.382,0.311,0.763,0.621,1.144,0.932l-0.026-0.014
		c0.396,0.936,0.792,1.871,1.188,2.807c-0.788-0.109-1.594-0.146-2.361-0.34c-5.985-1.513-11.023-5.488-17.159-6.617
		c-3.678-2.603-7.278-5.334-11.521-7.006c-0.312-2.242-1.802-3.064-3.862-3.199c0,0,0.049,0.049,0.049,0.049
		c0.163-1.498-1.19-1.553-2.011-2.113c0,0-0.02,0.134-0.022,0.135c-1.322-1.037-2.641-2.077-3.96-3.116c0,0-0.154,0.232-0.155,0.232
		c-0.265-1.199-1.298-0.768-2.037-0.96c-11.607-10.806-24.934-19.615-36.03-31.018c-0.632-3.839-5.351-3.669-6.687-6.818
		c4.166-0.65,6.602,2.498,9.664,4.325c1.082,0.646,3.657,1.993,3.343-0.135c-0.561-3.795,1.757-8.004-1.469-11.452
		c-1.021-1.091-1.675-2.496-1.275-4.12c0.549-2.227-0.324-3.718-2.126-5.087c-6.213-4.72-5.957-12.295-7.799-18.848
		c-0.769-2.734,0.335-5.939,0.091-8.89c-0.362-4.373,2.255-7.372,3.914-10.973c3.031-6.581,0.893-14.208,3.068-21.104
		c4.944-2.064,7.133-6.082,7.847-11.124c0.136-0.962-0.011-2.741,0.245-2.793c5.271-1.065,5.955-6.439,8.953-9.578
		c5.687-5.954,12.125-11.185,16.736-18.259c2.392-3.669,5.592-7.691,11.164-7.149c0.413,0.404,0.79,1.238,1.33,0.111l-0.07,0.046
		c1.261-0.185,1.945-1.082,2.559-2.068c0.193-0.105,0.337-0.259,0.433-0.459c1.426-2.161,4.497-3.247,4.247-6.502
		c6.58-3.201,12.551-7.938,20.352-8.067c4.449,4.548,9.728,6.855,16.174,5.981c2.516-0.342,3.667,1.141,4.121,3.254
		c0.396,1.844,0.884,3.297,3.176,2.349c3.146-1.302,4.94,0.548,6.628,2.723c0.043,0.205,0.085,0.409,0.125,0.614
		c-0.339,0.277-0.678,0.555-1.017,0.832c-1.278,0.086-2.813-2.268-3.772,0.072c-0.935,2.281-3.004,2.032-4.581,2.951
		c-3.234,1.886-6.649,0.033-9.649,1.126c-9.813,3.575-20.7,3.548-29.948,9.046c-1.329,0.789-3.16,0.835-4.782,1.001
		c-1.667,0.171-3.344,0.115-4.34,1.813c-0.508,0.035-1.015,0.07-1.523,0.105c-4.334-4.965-5.464-5.125-7.287-1.034
		c-2.071,3.3-3.728,6.761-4.951,12.132c5.474-4.373,11.296-3.424,16.15-6.291c3.416-2.018,8.329-1.064,10.661,1.631
		c4.483,5.182,9.096,4.361,14.321,2.467c3.202,1.258,5.876,6.6,9.926,1.281c5.38-0.305,10.157,0.063,14.347,4.681
		c4.032,4.445,7.217,3.402,10.418-2.133c0.604-1.044,1.337-0.823,2.059-0.56c1.712,0.624,3.379,1.373,5.064,2.071
		c0.231,1.068,0.847,1.824,1.842,2.274c-0.546,0.64-1.092,1.28-1.638,1.921c-2.112,0.127-1.768,1.012-0.657,2.132
		c3.327,3.56,6.933,1.027,9.93-0.161c3.247-1.287,5.951-0.689,9.077-0.249c3.667,0.517,5.742,1.807,6.091,5.65
		C307.627,361.58,308.953,361.898,310.004,361.924z M210.014,326.02c-0.758,0.459-1.08,1.132-0.981,2.009
		c-0.083,0.085-0.166,0.169-0.25,0.254c0.071-0.099,0.143-0.196,0.214-0.294c0.327-0.668,0.655-1.336,0.982-2.004
		c0.338-0.331,0.677-0.662,1.015-0.994c0.814-0.529,1.521-1.146,1.454-2.225c-0.007-0.111-0.564-0.351-0.699-0.266
		c-0.955,0.605-0.794,1.582-0.732,2.514C210.682,325.349,210.348,325.684,210.014,326.02z M316.913,365.547
		c-0.067-0.112-0.11-0.276-0.208-0.321c-0.119-0.055-0.284-0.009-0.43-0.007c0.094,0.187,0.188,0.373,0.283,0.56
		C316.677,365.701,316.795,365.624,316.913,365.547z"/>
	<path fill-rule="evenodd" clip-rule="evenodd" fill="#ACCEE5" d="M408.877,336.765c1.161,3.107,2.396,6.19,3.461,9.331
		c0.874,2.579,0.617,4.499-2.813,4.897c-4.341,0.504-7.406,3.505-10.587,6.139c-3.259,2.698-8.93,2.548-11.12-0.984
		c-2.816-4.541-7.01-4.171-10.856-3.304c-5.631,1.27-11.564,2.018-15.981,6.757c-2.053,2.201-4.086,0.364-4.723-2.062
		c-0.751-2.857-2.637-4.807-5.25-4.354c-8.189,1.421-15.156-2.908-22.742-4.201c-1.791-0.306-3.586-0.58-5.379-0.869
		c-0.313,0.298-0.628,0.597-0.942,0.895l-0.017-0.104c-4.852,1.007-8.828-3.845-13.797-2.063l-0.061,0.121
		c0.221-0.964-0.229-1.679-0.861-2.326c0.422-2.158,1.797-2.536,3.711-2.056c1.004,0.252,2.211,0.248,2.393-0.99
		c0.15-1.031,0.5-2.779-0.871-3.047c-4.051-0.787-1.577-3.016-1.182-4.7c0.551-2.35,2.24-4.017,3.816-5.724
		c6.438-3.252,12.874-6.503,19.311-9.754c0.138-0.459,0.275-0.917,0.412-1.376c-5.784,1.522-5.955-4.104-9.209-5.833
		c-1.424-0.756-3.051-1.427-2.685-3.661c0.374-2.276,1.649-3.537,3.817-4.024c6.36-1.428,12.635-3.113,18.502-6.049
		c9.28,1.17,18.147,4.221,27.276,6.013c6.621,1.3,12.776,3.455,18.577,6.789c0.287,0.26,0.576,0.52,0.865,0.779l0.047,0.048
		c0.283,2.65,1.714,4.563,3.858,6.021c0.362-0.018,0.726-0.034,1.087-0.052l0.051,0.045c-0.174,0.881,0.196,1.491,0.955,1.906
		c0,0,0.06,0.095,0.059,0.095c0.119,1.164,0.668,1.897,1.925,1.924l0.069,0.084c-0.133,0.854,0.172,1.49,0.945,1.893l0.074,0.099
		c0.305,0.306,0.609,0.611,0.913,0.916l0.065,0.091c0.266,2.892,1.629,5.156,3.937,6.88l0.096,0.128
		c0.081,1.179,0.687,1.832,1.89,1.89l0.088,0.125C407.852,334.425,407.859,335.715,408.877,336.765z"/>
	<path fill-rule="evenodd" clip-rule="evenodd" fill="#5795CC" d="M308.131,346.843c4.969-1.781,8.945,3.07,13.797,2.063
		c1.733,3.262,4.989,2.777,7.858,3.102c1.909,0.215,3.997,0.456,4.448,2.482c0.453,2.037-1.262,3.964-2.635,4.93
		c-1.894,1.332-3.415-0.774-4.319-2.256c-2.533-4.152-6.433-2.303-9.855-2.461c-0.483-0.022-1.511,0.958-1.437,1.157
		c2.386,6.399-4.157,3.913-5.985,6.063c-1.05-0.025-2.376-0.344-2.461-1.29c-0.349-3.844-2.424-5.134-6.091-5.65
		c-3.126-0.44-5.83-1.038-9.077,0.249c-2.998,1.188-6.603,3.721-9.925,0.161c0.221-0.711,0.436-1.422,0.652-2.132
		c0.546-0.641,1.092-1.281,1.639-1.924c0.065-1.311-0.519-2.093-1.844-2.271c-1.685-0.698-3.352-1.447-5.064-2.071
		c-0.722-0.264-1.456-0.484-2.059,0.56c-3.201,5.535-6.386,6.578-10.418,2.133c-4.19-4.618-8.967-4.985-14.347-4.681
		c-3.212-1.173-6.338-3.019-9.926-1.281c-5.226,1.895-9.838,2.715-14.321-2.467c-2.333-2.695-7.246-3.648-10.661-1.631
		c-4.854,2.867-10.676,1.918-16.15,6.291c1.223-5.371,2.879-8.832,4.95-12.131c2.429,0.345,4.858,0.689,7.287,1.033
		c0.508-0.035,1.015-0.07,1.524-0.104c3.779,0.059,7.625,0.773,11.286-0.618c8.73-3.317,17.644-2.66,26.634-1.583
		c3.771,0.452,7.495,0.429,10.655-2.496c1.917-1.773,4.23-3.146,6.468-4.535c1.928-1.195,5.478,0.656,6.183-1.952
		c0.618-2.285-3.891-2.131-4.155-4.825c0.339-0.277,0.678-0.555,1.018-0.831c0.267-0.072,0.531-0.146,0.796-0.22
		c-0.308-0.132-0.615-0.264-0.922-0.396c-1.688-2.175-3.482-4.024-6.628-2.723c-2.292,0.948-2.78-0.505-3.176-2.349
		c-0.454-2.113-1.605-3.596-4.121-3.254c-6.447,0.874-11.725-1.434-16.174-5.981c6.464-3.521,13.727-3.928,20.741-4.634
		c26.782-2.694,53.61-4.84,80.511-1.38c0.814,0.105,1.613,0.322,2.408,0.485c-5.877,2.934-12.151,4.619-18.512,6.047
		c-2.168,0.487-3.443,1.748-3.817,4.024c-0.366,2.234,1.261,2.905,2.685,3.661c3.254,1.729,3.425,7.355,9.209,5.833
		c-0.137,0.459-0.274,0.917-0.412,1.376c-6.437,3.251-12.873,6.502-19.311,9.753c-2.135-3.301-4.674-6.363-3.315-10.879
		c0.526-1.75-1.109-3.413-2.1-4.927c-0.699-1.068-2.201-0.968-2.255,0.18c-0.271,5.784-2.991,10.259-6.756,14.37
		c-0.494,0.539-0.387,2.096,0.011,2.898c1.3,2.622,1.336,4.417-1.668,6.061c-1.587,0.868-1.302,3.662,0.29,4.205
		c3.133,1.067,2.939,3.449,3.563,5.795C303.81,349.447,305.622,350.379,308.131,346.843z"/>
	<path fill-rule="evenodd" clip-rule="evenodd" fill="#664340" d="M263.966,289.02c0.748-6.851,2.278-8.388,8.475-8.512
		c3.739-0.075,3.713-0.085,5.034-3.468c0.146-0.372,0.866-0.48,1.196-0.828c2.22-2.339,3.789-4.385-0.774-6.159
		c-2.963-1.152-5.472-3.638-8.935-1.31c-0.586,0.394-1.792,0.438-2.426,0.103c-8.951-4.736-16.843-1.789-24.481,3.224l-0.13-0.129
		c-0.391-1.093-1.272-1.919-2.217-1.103c-2.675,2.313-5.625,4.033-8.803,5.563c-0.918,0.442-1.349,1.867-2.57,0.71
		c-1.23-1.166-0.883-2.346,0.321-3.397c1.453-1.269,3.399-1.99,4.31-3.863c10.17-4.29,20.93-6.462,31.651-8.746
		c16.391-3.491,32.811-3.065,49.512-2.187c7.884,0.414,15.805,2.742,23.86,1.422c2.61-0.428,4.362,2.306,6.729,3.134
		c0.1,0.035,0.129,0.437,0.178,0.434c7.486-0.426,11.605,7.152,18.959,7.696c6.319,0.468,13.099,1.604,15.475,9.325
		c0.316,1.027,1.143,1.818,2.25,0.957c0.925-0.719,1.715-1.977,2.758-0.411c0.861,1.292,0.324,2.746-0.738,3.606
		c-2.307,1.868-4.601,3.954-8.002,3.296c-1.202-0.232-2.503-0.177-2.817,1.287c-0.245,1.144,0.878,1.682,1.665,2.264
		c1.646,1.214,3.356,2.073,5.552,1.663c2.075-0.387,3.962,0.316,5.544,1.688c0.776,0.674,1.376,1.583,0.783,2.633
		c-0.596,1.057-1.637,0.875-2.652,0.67c-9.408-1.895-18.861-3.589-28.209-5.738c-4.416-1.016-8.09-5.452-13.402-2.228
		c-1.016,0.616-3.203-0.582-4.476-1.753c-2.473-2.275-4.677-2.306-6.638,0.622c-0.86,1.286-2.135,1.476-3.531,1.287
		c-8.743-1.178-17.529-1.071-26.321-0.993c-3.08,0.028-6.141-0.85-9.181-1.192c-6.829-0.771-13.14,1.756-19.737,1.578
		c-7.064-0.189-12.944,4.051-19.684,5.081c-2.605,0.398-5.059,1.704-7.804,1.381c1.417-4.424,5.905-3.538,8.973-4.933
		c3.205-1.457,6.887-1.863,10.36-2.729c0,0.001,0.124,0.191,0.124,0.191L263.966,289.02z M276.275,266.275
		c-0.044,0.103-0.153,0.243-0.12,0.3c0.057,0.096,0.204,0.138,0.313,0.202c0.066-0.166,0.133-0.333,0.199-0.499
		C276.537,266.278,276.406,266.278,276.275,266.275z"/>
	<path fill-rule="evenodd" clip-rule="evenodd" fill="#664340" d="M404.46,315.987c7.532,0.588,14.578,2.329,19.55,8.647
		c2.056,2.613,4.619,4.151,7.928,4.447c0.001-0.002,0.306,0.171,0.306,0.171l-0.169-0.31c0.181-0.935,0.151-2.497,1.44-2.101
		c2.653,0.817,5.907,1.519,6.93,4.302c0.763,2.078,0.866,4.049,3.509,4.486c0.361,0.06,0.841,0.7,0.896,1.12
		c1.193,9.107,10.896,14.368,10.846,24.021c5.679,3.576,3.526,10.712,6.969,15.379c1.24,1.682,1.724,4.005,0.405,6.154
		c-0.67,1.091-0.763,2.234,0.018,3.277c4.168,5.576,3.858,12.087,2.666,18.177c-1.409,7.201,0.753,14.691-2.253,21.664
		c-0.312,0.721-0.069,1.791-0.942,2.158c-7.396,3.112-9.333,10.682-12.904,16.641c-2.448,4.086-5.388,7.406-8.609,10.682
		c-0.617-1.024-0.605-2.184-0.839-3.307c-0.919-4.419,3.761-6.97,3.829-10.048c0.079-3.563-2.805-7.17-1.085-11.32
		c0.608-1.469,0.706-3.254,0.641-4.878c-0.206-5.12,0.692-10.381,3.201-14.423c4.692-7.561,0.528-13.765-1.643-20.248
		c-1.735-5.186-4.765-9.978-7.089-14.828c-4.73-9.87-6.4-21.156-10.101-31.586c-3.346-9.432-6.732-19.155-17.542-23.281
		C408.096,320.1,405.641,318.605,404.46,315.987z"/>
	<path fill-rule="evenodd" clip-rule="evenodd" fill="#957F69" d="M404.46,315.987c1.181,2.618,3.636,4.112,5.956,4.998
		c10.81,4.126,14.196,13.85,17.542,23.281c3.7,10.43,5.37,21.716,10.101,31.586c2.324,4.851,5.354,9.643,7.089,14.828
		c2.171,6.483,6.335,12.688,1.643,20.248c-2.509,4.042-3.407,9.303-3.201,14.423c0.065,1.624-0.032,3.409-0.641,4.878
		c-1.72,4.15,1.164,7.758,1.085,11.32c-0.068,3.078-4.748,5.629-3.829,10.048c0.233,1.123,0.222,2.282,0.839,3.307
		c-0.366,0.182-0.733,0.363-1.099,0.543c-1.642-0.468-3.298-0.67-4.272,1.099c-0.922,1.675,0.032,2.73,1.527,3.445
		c-0.949,1.527-2.054,2.911-3.607,3.874c-2.912,0.646-5.97,1.112-6.338,4.993c-4.079,4.564-10.409,6.249-14.241,11.131l-0.023,0.022
		c-0.758-0.087-1.257,0.085-1.005,1.006l0.036-0.027c-2.265-1.106-3.62,0.85-5.259,1.656c-4.795,2.36-9.063,5.798-14.41,7.033
		c6.203-6.535,11.901-13.58,19.014-19.202c1.851-1.463,3.57-2.701,3.867-5.378c0.547-4.942,4.876-7.72,7.307-11.59
		c1.416-2.255,1.944-4.014,0.957-6.323c2.445,1.096,4.883,2.182,8.027,3.582c-3.153-5.583-2.549-6.933,2.303-7.047
		c2.111-0.05,3.075-1.289,2.99-3.187c-0.442-9.93,0.461-20.098-4.846-29.219c-0.553-0.95-0.638-1.902-0.172-2.844
		c1.521-3.074,0.025-6.22,0.112-9.322c0.05-1.784-0.767-4.596-4.053-3.38c-3.088-7.948-2.625-16.468-3.989-24.693
		c-0.243-1.466-0.477-3.036-1.175-4.306c-1.846-3.361-2.112-6.785-1.797-10.577c0.753-9.071-2.587-16.859-8.081-23.984
		c-4.229-5.485-8.014-11.313-11.996-16.988l0.292-0.312c0.542-0.034,1.083-0.068,1.624-0.103
		C403.311,315.201,403.885,315.594,404.46,315.987z"/>
	<path fill-rule="evenodd" clip-rule="evenodd" fill="#957F69" d="M167.779,368.797c-2.175,6.896-0.037,14.522-3.068,21.104
		c-1.659,3.601-4.276,6.6-3.914,10.973c0.244,2.95-0.859,6.155-0.091,8.89c1.843,6.553,1.586,14.128,7.799,18.848
		c1.802,1.369,2.675,2.86,2.126,5.087c-0.4,1.624,0.255,3.029,1.275,4.12c3.226,3.448,0.908,7.657,1.469,11.452
		c0.314,2.128-2.261,0.78-3.343,0.135c-3.062-1.827-5.498-4.976-9.664-4.325c-7.437-4.7-12.303-12.009-18.354-18.114
		c2.077-3.658-0.683-7.322,0.014-10.982l-0.043,0.045c0.99-4.71,3.93-9.027,2.875-14.148c-1.332-6.47,1.67-12.315,5.406-16.318
		c3.632-3.892,5.452-8.408,8.11-12.605c1.114-1.76,1.991-3.912,0.825-6.149c0.109-0.289,0.292-0.518,0.55-0.687
		c2.312,1.541,4.006,1.248,4.84-1.624c0.439-1.515,1.131-2.771,2.971-2.809C171.451,363.94,166.485,366.464,167.779,368.797z"/>
	<path fill-rule="evenodd" clip-rule="evenodd" fill="#664340" d="M142.029,415.982c-0.697,3.66,2.063,7.324-0.014,10.982
		c-6.151-4.156-6.388-11.459-9.195-17.389c-0.455-0.961,0.047-2.266,1.209-2.281c6.134-0.081,3.215-4.502,2.679-6.614
		c-1.78-7.02,0.15-14.221,5.851-19.183c5.582-4.859,11.099-9.793,16.644-14.693c1.165,2.238,0.288,4.391-0.826,6.15
		c-2.658,4.197-4.478,8.714-8.11,12.605c-3.736,4.003-6.738,9.849-5.406,16.318c1.055,5.121-1.885,9.438-2.875,14.148
		c0-0.001-0.139-0.171-0.139-0.171L142.029,415.982z"/>
	<path fill-rule="evenodd" clip-rule="evenodd" fill="#72A4D2" d="M167.779,368.797c-1.294-2.333,3.672-4.856-0.214-7.108
		c0.002,0.002,0.19,0.092,0.19,0.092c3.286-0.513,3.747-2.525,2.805-5.282c3.293-2.866,4.37-7.331,7.46-10.345
		c6.681-3.233,10.961-9.186,15.975-14.278c1.47-1.493,2.3-3.623,2.278-5.889c6.433-5.002,12.34-10.82,20.47-13.189
		c0.077,1.576,0.155,3.151,0.232,4.727c-0.096,0.2-0.24,0.354-0.433,0.459c-1.491-0.1-2.163,0.813-2.559,2.068l0.07-0.046
		c-0.443-0.037-0.887-0.074-1.33-0.111c-5.572-0.542-8.772,3.48-11.164,7.149c-4.611,7.074-11.049,12.305-16.736,18.259
		c-2.998,3.139-3.681,8.513-8.953,9.578c-0.256,0.052-0.109,1.831-0.245,2.793C174.912,362.715,172.723,366.732,167.779,368.797z"/>
	<path fill-rule="evenodd" clip-rule="evenodd" fill="#664340" d="M108.368,386.217c-0.548-2.715,2.459-5.402-0.008-8.234
		c-0.375-0.431,0.658-1.39,1.667-0.992c3.931,1.552,7.104-1.068,10.644-1.73c7.629-1.427,14.935-3.72,22.166-6.395
		c-1.612,4.804-6.787,3.958-10.055,6.188c-2.384,1.625-5.516,2.369-8.425,2.962C118.215,379.266,112.762,381.657,108.368,386.217z"
		/>
	<path fill-rule="evenodd" clip-rule="evenodd" fill="#664340" d="M178.02,346.153c-3.09,3.014-4.167,7.479-7.458,10.347
		c-2.466,0.946-3.017,2.91-2.808,5.28c0,0-0.188-0.09-0.19-0.092c-1.843,0.035-2.534,1.292-2.974,2.807
		c-0.833,2.872-2.528,3.165-4.84,1.624c0.437-3.341,2.999-5.343,4.948-7.69c4.322-5.206,8.096-10.879,13.119-15.491
		C177.886,344.01,177.953,345.082,178.02,346.153z"/>
	<path fill-rule="evenodd" clip-rule="evenodd" fill="#664340" d="M117.747,403.828c2.736,0.16,7.735,6.748,6.98,9.35
		c-0.65,2.236-2.412,2.482-4.382,2.006c-2.979-0.721-6.829-6.433-6.44-9.518C114.159,403.642,114.201,403.621,117.747,403.828z"/>
	<path fill-rule="evenodd" clip-rule="evenodd" fill="#664340" d="M195.795,319.701c7.771-7.995,17.684-12.252,27.893-15.993
		c0.343,1.946-0.491,3.168-2.305,3.84c-6.875,2.548-13.004,6.452-19.043,10.514C200.344,319.403,198.253,320.257,195.795,319.701z"
		/>
	<path fill-rule="evenodd" clip-rule="evenodd" fill="#957F69" d="M128.095,393.013c0.127,3.445-1.26,7.162,1.806,10.08
		c0.092,0.339,0.184,0.678,0.276,1.018c0.156,2.202,0.312,4.405,0.469,6.609c-0.57,0.13-1.142,0.26-1.713,0.39
		c-3.565-4.153-6.28-8.598-5.933-14.429c0.116-1.944,0.426-3.542,2.005-4.743C125.438,394.013,126.882,393.179,128.095,393.013z"/>
	<path fill-rule="evenodd" clip-rule="evenodd" fill="#957F69" d="M178.02,346.153c-0.067-1.071-0.134-2.144-0.202-3.216
		c0.364-0.382,0.729-0.763,1.093-1.144c2.274-0.268,3.454-1.698,4.017-3.783c5.011-3.381,7.645-9.4,13.343-12.023
		c0.024,2.265-0.806,4.395-2.276,5.888C188.981,336.968,184.701,342.92,178.02,346.153z"/>
	<path fill-rule="evenodd" clip-rule="evenodd" fill="#664340" d="M159.854,353.866c2.399-6.917,8.793-10.57,13.106-15.928
		c1.304-1.619,3.349-2.641,5.055-3.937c0.073,1.583-0.561,2.871-1.63,3.992c-4.766,5-9.503,10.027-14.32,14.979
		C161.557,353.494,160.601,353.579,159.854,353.866z"/>
	<path fill-rule="evenodd" clip-rule="evenodd" fill="#664340" d="M427.254,468.858c0.368-3.881,3.426-4.347,6.338-4.993
		C433.252,467.781,430.492,468.623,427.254,468.858z"/>
	<path fill-rule="evenodd" clip-rule="evenodd" fill="#664340" d="M183.747,328.717c1.278-3.76,4.189-5.426,7.851-6.129
		C189.738,325.602,187.436,328.046,183.747,328.717z"/>
	<path fill-rule="evenodd" clip-rule="evenodd" fill="#664340" d="M437.199,459.991c-1.495-0.715-2.449-1.771-1.527-3.445
		c0.975-1.769,2.631-1.566,4.272-1.099C439.203,457.069,439.248,459.162,437.199,459.991z"/>
	<path fill-rule="evenodd" clip-rule="evenodd" fill="#957F69" d="M216.975,317.523c-0.078-1.575-0.155-3.15-0.232-4.727
		c0.001,0,0.106,0.159,0.107,0.158c0.195-0.423,0.39-0.845,0.584-1.267c1.116-1.048,2.481-0.679,3.786-0.667
		C221.472,314.276,218.401,315.362,216.975,317.523z"/>
	<path fill-rule="evenodd" clip-rule="evenodd" fill="#664340" d="M153.815,359.714c1.133-2.146,2.684-3.877,4.907-4.938
		C159.03,358.351,157.369,359.973,153.815,359.714z"/>
	<path fill-rule="evenodd" clip-rule="evenodd" fill="#664340" d="M142.877,368.836c0.594-3.249,3.475-3.264,5.78-4.092
		C148.134,368.09,145.444,368.376,142.877,368.836z"/>
	<path fill-rule="evenodd" clip-rule="evenodd" fill="#664340" d="M182.928,338.011c-0.563,2.085-1.743,3.516-4.017,3.783
		C179.514,339.751,180.696,338.322,182.928,338.011z"/>
	<path fill-rule="evenodd" clip-rule="evenodd" fill="#664340" d="M128.095,393.013c-1.212,0.166-2.657,1-3.089-1.075
		c0.905-0.876,1.647-3.064,2.995-0.371c0.009,0.499,0.017,0.996,0.025,1.493L128.095,393.013z"/>
	<path fill-rule="evenodd" clip-rule="evenodd" fill="#664340" d="M148.768,364.663c0.321-1.625,1.287-2.594,2.925-2.879
		C151.763,363.806,150.848,364.826,148.768,364.663z"/>
	<path fill-rule="evenodd" clip-rule="evenodd" fill="#664340" d="M151.791,361.694c0.222-1.065,0.877-1.686,1.939-1.887
		C153.771,361.143,153.118,361.765,151.791,361.694z"/>
	<path fill-rule="evenodd" clip-rule="evenodd" fill="#957F69" d="M400.82,315.222c-0.924-0.329-1.609-0.866-1.705-1.925
		c0.873-0.22,1.623,0.026,2.291,0.587c-0.1,0.342-0.196,0.684-0.294,1.026L400.82,315.222z"/>
	<path fill-rule="evenodd" clip-rule="evenodd" fill="#664340" d="M128.933,411.109c0.571-0.13,1.143-0.26,1.713-0.39
		c0.151,0.603,0.234,1.284-0.511,1.455C129.415,412.341,129.152,411.677,128.933,411.109z"/>
	<polygon fill-rule="evenodd" clip-rule="evenodd" fill="#664340" points="282.072,290.336 282.068,290.612 281.81,290.471 	"/>
	<path fill-rule="evenodd" clip-rule="evenodd" fill="#664340" d="M401.112,314.91c0.098-0.343,0.194-0.685,0.294-1.026
		c0.447,0.309,0.893,0.617,1.334,0.925C402.195,314.842,401.654,314.876,401.112,314.91z"/>
	<path fill-rule="evenodd" clip-rule="evenodd" fill="#664340" d="M130.177,404.11c-0.092-0.34-0.184-0.679-0.276-1.018
		c0.333,0.184,0.667,0.366,1,0.549C130.66,403.798,130.418,403.954,130.177,404.11z"/>
	<path fill-rule="evenodd" clip-rule="evenodd" fill="#72A4D2" d="M217.434,311.688c-0.194,0.422-0.389,0.844-0.584,1.267
		C216.358,312.218,217.032,312.016,217.434,311.688z"/>
	<path fill-rule="evenodd" clip-rule="evenodd" fill="#72A4D2" d="M391.943,311.005c-0.289-0.26-0.578-0.52-0.865-0.779
		C391.82,309.984,391.883,310.494,391.943,311.005z"/>
	<path fill-rule="evenodd" clip-rule="evenodd" fill="#957F69" d="M128.026,393.06c-0.008-0.497-0.017-0.994-0.025-1.493
		C128.651,392.053,129.229,392.541,128.026,393.06z"/>
	<path fill-rule="evenodd" clip-rule="evenodd" fill="#957F69" d="M294.171,529.105c-26.964,1.178-51.702-7.238-75.981-17.631
		c-8.585-6.051-17.153-12.131-26.625-16.777c0,0-0.179-0.352-0.178-0.354c-0.459-1.119-0.919-2.234-1.379-3.35l-0.012,0.014
		c7.025,4.396,13.968,8.93,21.093,13.156c13.204,7.832,27.047,14.16,42.142,17.52c11.796,2.624,23.778,3.424,35.789,3.947
		C291.648,525.744,293.614,526.217,294.171,529.105z"/>
	<path fill-rule="evenodd" clip-rule="evenodd" fill="#371921" d="M226.606,498.894c6.136,1.129,11.174,5.104,17.159,6.617
		c0.767,0.193,1.573,0.23,2.359,0.34c1.506,0.911,3.124,1.375,4.898,1.201c3.452,2.143,7.887,1.889,11.122,4.56
		c-8.992-2.086-18.22-3.313-26.637-7.459C232.404,502.624,228.935,501.729,226.606,498.894z"/>
	<path fill-rule="evenodd" clip-rule="evenodd" fill="#5795CC" d="M285.915,513.155c2.086-1.581,4.305-2.093,6.939-1.422
		c6.483,1.651,13.05,0.147,19.579,0.286c1.959,0.042,3.969-0.273,5.729,0.95c-0.096,0.234-0.152,0.479-0.168,0.731
		C307.316,512.679,296.58,515.02,285.915,513.155z"/>
	<path fill-rule="evenodd" clip-rule="evenodd" fill="#371921" d="M211.223,488.688c2.06,0.135,3.55,0.957,3.862,3.199
		C213.155,491.596,211.488,490.988,211.223,488.688z"/>
	<path fill-rule="evenodd" clip-rule="evenodd" fill="#371921" d="M205.278,483.643c1.319,1.039,2.639,2.079,3.96,3.116
		C206.726,487.237,205.086,486.604,205.278,483.643z"/>
	<path fill-rule="evenodd" clip-rule="evenodd" fill="#371921" d="M186.022,493.981c-0.917-0.215-1.914-0.373-2.252-1.422
		c-0.181-0.561,0.223-0.972,0.785-0.787c1.04,0.341,1.223,1.324,1.426,2.25L186.022,493.981z"/>
	<path fill-rule="evenodd" clip-rule="evenodd" fill="#371921" d="M209.261,486.624c0.821,0.561,2.174,0.615,2.011,2.113
		C209.74,488.853,208.996,488.219,209.261,486.624z"/>
	<path fill-rule="evenodd" clip-rule="evenodd" fill="#957F69" d="M125.537,486.135c0.074,0.123,0.21,0.251,0.2,0.367
		c-0.009,0.11-0.17,0.209-0.264,0.313C125.494,486.588,125.514,486.361,125.537,486.135z"/>
	<path fill-rule="evenodd" clip-rule="evenodd" fill="#957F69" d="M190.008,490.993c-0.409-0.157-0.817-0.315-1.226-0.473
		c0.115-0.168,0.229-0.336,0.344-0.505c0.29,0.331,0.58,0.661,0.87,0.991L190.008,490.993z"/>
	<path fill-rule="evenodd" clip-rule="evenodd" fill="#371921" d="M203.086,482.915c0.739,0.192,1.772-0.239,2.037,0.96
		C204.172,484.133,203.471,483.858,203.086,482.915z"/>
	<path fill-rule="evenodd" clip-rule="evenodd" fill="#957F69" d="M346.986,525.972l0.043,0.044L346.986,525.972z"/>
	<path fill-rule="evenodd" clip-rule="evenodd" fill="#664340" d="M438.023,488.014c1.254-1.866,3.351-2.649,5.061-3.927
		c16.566-12.367,32.953-24.962,48.668-38.409c1.245-1.065,2.29-2.432,4.015-2.821c-0.891,3.281-3.401,6.277-0.465,10.047
		c0.95,1.22-0.725,3.915-2.019,5.322c-5.365,5.836-9.875,12.442-15.88,17.695c-0.741,0.648-1.505,1.43-2.398,1.721
		c-4.997,1.629-9.934,3.314-13.973,6.902c-0.352,0.313-1.222,0.041-1.777,0.041c-0.959-1.541,2.512-2.45,0.386-3.847
		c-1.71-1.123-3.396-0.171-4.466,1.031C450.544,486.974,443.988,486.635,438.023,488.014z"/>
	<path fill-rule="evenodd" clip-rule="evenodd" fill="#664340" d="M191.564,494.697c9.472,4.646,18.04,10.727,26.625,16.777
		c-1.048,1.004-2.576,1.726-3.591,0.78c-4.044-3.765-10.19-3.733-13.932-7.99c-1.862-2.117-3.975-3.978-6.548-5.297
		C192.479,498.128,190.936,497.001,191.564,494.697z"/>
	<path fill-rule="evenodd" clip-rule="evenodd" fill="#664340" d="M431.057,492.059c1.813-2.215,4.287-3.29,6.952-4.034
		C436.68,491.072,433.926,491.664,431.057,492.059z"/>
	<path fill-rule="evenodd" clip-rule="evenodd" fill="#664340" d="M415.086,501.085c1.008-1.327,2.359-1.941,4.011-1.932
		C418.347,501.015,416.711,501.038,415.086,501.085z"/>
	<path fill-rule="evenodd" clip-rule="evenodd" fill="#664340" d="M406.993,505.095c0.493-0.728,1.196-1.039,2.058-1.033
		C408.746,505.166,408.284,505.955,406.993,505.095z"/>
	<path fill-rule="evenodd" clip-rule="evenodd" fill="#664340" d="M242.054,272.069c-0.072,0.085-0.145,0.169-0.216,0.254
		c-0.056-0.056-0.112-0.111-0.167-0.167c0.085-0.071,0.17-0.143,0.255-0.215C241.924,271.94,242.054,272.069,242.054,272.069z"/>
	<path fill-rule="evenodd" clip-rule="evenodd" fill="#957F69" d="M431.023,535.029c0.215-0.385,0.431-0.77,0.646-1.154
		c0.154,0.161,0.31,0.321,0.464,0.482c-0.388,0.206-0.775,0.411-1.163,0.617C430.969,534.975,431.023,535.029,431.023,535.029z"/>
	<polygon fill-rule="evenodd" clip-rule="evenodd" fill="#664340" points="160.967,488.024 160.745,487.755 161.021,487.972 	"/>
	<polygon fill-rule="evenodd" clip-rule="evenodd" fill="#664340" points="140.006,533.996 140.201,534.228 139.995,534.007 	"/>
	<path fill-rule="evenodd" clip-rule="evenodd" fill="#371921" d="M392.352,489.68c5.348-1.235,9.615-4.673,14.41-7.033
		c1.639-0.807,2.994-2.763,5.259-1.656c-7.905,6.279-16.792,10.846-25.975,14.894c-0.144-0.597-0.288-1.192-0.432-1.788
		C387.86,492.624,390.105,491.151,392.352,489.68z"/>
	<path fill-rule="evenodd" clip-rule="evenodd" fill="#664340" d="M326.717,513c8.227-2.912,16.91-3.426,25.418-4.837
		C343.891,510.989,335.282,511.881,326.717,513z"/>
	<path fill-rule="evenodd" clip-rule="evenodd" fill="#664340" d="M385.614,494.096c0.144,0.596,0.288,1.191,0.432,1.788
		c-5.192,3.442-10.683,6.186-16.904,7.218C374.082,499.093,380.5,497.787,385.614,494.096z"/>
	<path fill-rule="evenodd" clip-rule="evenodd" fill="#371921" d="M411.984,481.018c-0.252-0.921,0.247-1.093,1.005-1.006
		C413.265,480.958,412.711,481.074,411.984,481.018z"/>
	<path fill-rule="evenodd" clip-rule="evenodd" fill="#5795CC" d="M237.003,456.946c-4.323-1.406-8.107-5.742-13.294-2.44
		c-4.339-3.767-7.919-1.799-12.058,0.84c-1.688,1.075-4.947,0.418-7.04-2.016c-4.182-4.862-5.687-10.898-7.681-16.653
		c-4.884-14.097-7.642-28.587-6.603-43.614c0.304-0.036,0.604-0.101,0.897-0.192c4.253,0.421,8.502,1.345,12.773,0.137
		c0.765,0.254,1.53,0.508,2.295,0.761c0.463-0.042,0.925-0.083,1.39-0.122c7.172,1.021,14.341,2.051,21.515,3.047
		c1.314,0.183,2.268-0.363,2.644-1.709c1.204-4.312,4.971-4.613,8.355-4.897c8.485-0.714,15.351,3.123,21.157,8.801
		c2.793,2.731,6.35,3.226,8.396,1.205c2.333-2.302-0.115-5.09-2.582-6.828c-0.522-0.368-1.259-0.54-1.135-1.732
		c2.057-0.955,4.243-2.072,6.512-2.982c1.245-0.5,3.65,0.082,2.685,1.161c-2.551,2.852,0.127,5.341-0.343,7.977
		c-0.873,4.89-2.142,10.063,2.113,14.284c-2.345,0.501-4.689,1.001-7.034,1.501c-2.765-1.016-4.92,1.29-7.589,1.456
		c-2.178,0.136-2.894,2.757-1,4.606c1.641,1.604,3.875,3.608,5.977,3.162c5.447-1.159,10.025,1.563,14.978,2.473
		c3.47,0.637,6.887,0.997,10.385,0.639l0.143-0.058c0.413,0.408,0.826,0.815,1.238,1.223l-0.057-0.474l0.473-0.063
		c-0.39,1.893,0.031,3.736,2.259,3.161c4.324-1.117,8.853,0.295,13.068-1.374c3.769-2.044,7.537-4.088,11.307-6.132
		c8.474,1.529,16.865,3.202,25.477,0.16c2.452-0.867,6.268-1.015,8.18,0.329c5.135,3.61,9.333,2.095,14.279-0.148
		c3.712-1.684,6.346-1.286,4.838-7.66c-1.457-6.157-3.18-8.142-8.807-7.804c-3.195-2.831-6.715-2.902-10.651-1.684
		c-2.538,0.787-5.175,2.669-8,0.585c-4.438-3.276-9.212-3.214-14.153-1.384c0.879-9.344-0.264-18.279-5.332-26.423
		c3.946-3.226,6.609-8.17,12.705-8.498c1.877-0.101,3.654-2.036,5.51-3.151c-0.822-1.634-3.381,0-3.461-2.188
		c-0.02-0.496,0.587-1.299,1.082-1.479c1.975-0.724,4.315-2.233,6.072-0.445c5.52,5.613,11.973,4.741,18.617,3.271
		c4.176-0.923,8.094-1.121,11.853,1.758c2.717,2.081,6.386,1.618,9.63,2.279c1.01,0.206,1.885-0.195,2.299-1.389
		c1.589-4.59,9.25-8.895,14.596-8.107c0.952,0.14,1.84,0.529,2.883,0.461c7.487-0.487,7.54-0.419,8.205,7.28
		c-4.63,0.845-10.563-1.426-12.746,5.343c-0.084,0.259-0.936,0.504-1.328,0.394c-3.188-0.896-6.464,1.247-9.723-0.536
		c-1.527-0.835-3.705-0.65-5.143,0.711c-4.252,4.026-10.251,4.118-15.049,6.875c-2.583-2.479-5.163-1.02-7.043,0.654
		c-1.751,1.56-0.891,3.635,0.918,5.117c1.144,0.938,0.881,2.442,1.335,3.657c1.052,2.816,2.788,4.879,6.153,4.911
		c4.619,0.045,8.773,1.597,12.691,3.968c1.84,1.113,3.672,1.231,6.012,1.044c3.112-0.248,6.504,1.163,9.551,2.41
		c3.626,1.483,7.335,2.084,11.147,2.106c3.831,0.023,5.821,0.682,6.02,5.539c0.342,8.335-2.927,16.058-2.939,24.23
		c-5.716,0.233-11.423,0.666-17.02-1.251c-1.085-0.371-3.009-0.098-3.759,0.659c-4.111,4.147-8.402,3.845-12.993,1.097
		c-1.198-4.243-3.101-7.574-8.409-6.496c-3.205-0.321-6.385-0.097-9.189,1.538c-5.105,2.977-9.102,8.343-16.162,6.958
		c-1.163-0.229-2.447,0.749-3.365,1.86c-1.688,2.045-1.645,3.544,1.066,4.476c0.316,0.299,0.631,0.598,0.946,0.897l0.024,0.063
		c3.537,7.229,8.465,12.031,17.355,10.057c0.607-0.135,1.342,0.066,1.964,0.271c5.169,1.705,10.155,0.997,15.108-0.938
		c2.592-1.012,5.08-1.556,8.076-0.654c3.438,1.034,6.956,0.154,9.529-2.826c0.344-0.012,0.687-0.023,1.029-0.035
		c2.26,3.552,5.215,2.521,8.894,0.626c-2.247,7.792-5.515,14.19-9.546,20.25c-2.273,3.417-3.802,7.451-8.301,8.875
		c-1.432,0.453-2.678,1.401-4.203,0.479c-1.475-0.892-2.208-0.282-3.22,0.993c-3.097,3.902-5.241,4.056-7.949,0.006
		c-2.001-2.993-3.827-4.244-7.579-3.624c-4.354,0.72-8.945-0.217-13.185,1.716c-0.979,0.447-2.015,0.501-2.491-0.725
		c-0.496-1.273,0.07-2.26,1.146-2.975c1.353-0.898,3.361-0.496,4.8-2.929c-5.62-0.569-10.282-3.226-15.389-4.657
		c-0.618-2.984-3.765-4.475-5.446-4.146c-4.809,0.938-8.297-2.374-12.555-2.759c-0.37-3.137-4.355-3.416-5.074-7.025
		c-0.395-1.984-0.643,2.104-2.638,2.123c-1.857-1.534-1.59-5.059-4.245-6.483c-1.014-0.543-2.684-1.937-2.764-1.843
		c-3.356,3.939-5.601-0.354-8.288-1.031c-2.989-0.753-5.098,0.635-6.851,2.869c-2.877,3.667-4.595,3.756-7.34,0.396
		c-3.292-4.03-5.75-3.711-8.131,1.437c-2.186-3.944-4.999-4.709-9.039-2.764c-3.737,1.8-7.671-2.282-11.702-0.354
		c-0.615,0.294-1.934-0.366-1.979,0.766c-0.242,6.017-4.83,3.975-8.104,4.609C245.523,454.621,240.148,451.34,237.003,456.946z"/>
	<path fill-rule="evenodd" clip-rule="evenodd" fill="#ACCEE5" d="M401.027,449.952c-0.343,0.012-0.686,0.023-1.029,0.035
		c-5.445-3.188-11.482-0.02-17.064-1.587c-2.744-0.771-5.539-0.43-7.713,0.964c-5.6,3.591-10.978-0.719-16.447-0.025
		c-0.586,0.074-1.236-1.157-1.977-1.377c-3.116-0.926-5.069-4.478-8.832-3.885c0,0-0.024-0.063-0.023-0.063
		c-0.315-0.3-0.631-0.599-0.947-0.897c-2.711-0.932-2.754-2.431-1.066-4.476c0.918-1.111,2.202-2.089,3.365-1.86
		c7.061,1.385,11.057-3.981,16.162-6.958c2.805-1.635,5.984-1.859,9.191-1.54c0.905,2.092-0.78,3.254-2.283,5.281
		c2.504-0.448,4.333-0.329,5.794,1.307c1.524,1.706,3.275,0.892,4.896-0.09c4.591,2.748,8.882,3.051,12.993-1.097
		c0.75-0.757,2.674-1.03,3.759-0.659c5.597,1.917,11.304,1.484,17.02,1.251C416.127,443.411,411.65,447.853,401.027,449.952z"/>
	<path fill-rule="evenodd" clip-rule="evenodd" fill="#ACCEE5" d="M372.98,380.639c4.798-2.757,10.797-2.849,15.049-6.875
		c1.438-1.361,3.615-1.546,5.143-0.711c3.259,1.783,6.535-0.359,9.723,0.536c0.393,0.11,1.244-0.135,1.328-0.394
		c2.183-6.769,8.116-4.498,12.746-5.343c2.658,7.566,3.878,15.233-0.099,22.651c-2.27,4.233-5.369,4.606-8.148,0.832
		c-3.198-4.342-6.819-4.41-10.878-2.296c-6.826,3.556-14.279,2.576-21.48,3.308c-2.563,0.261-3.813-1.653-3.707-4.246
		C372.758,385.613,372.872,383.127,372.98,380.639z"/>
	<path fill-rule="evenodd" clip-rule="evenodd" fill="#5795CC" d="M427.858,395.771c3.286-1.216,4.103,1.596,4.053,3.38
		c-0.087,3.103,1.409,6.248-0.112,9.322c-0.466,0.941-0.381,1.894,0.172,2.844c5.307,9.121,4.403,19.289,4.846,29.219
		c0.085,1.897-0.879,3.137-2.99,3.187c-4.852,0.114-5.456,1.464-2.303,7.047c-3.145-1.4-5.582-2.486-8.027-3.582
		c-0.889-1.257-1.785-2.518-0.53-4.025c3.529-4.241,2.822-8.613,1.509-13.649c-1.282-4.914,1.458-9.959,1.88-15.021
		C426.874,408.252,427.358,402.011,427.858,395.771z"/>
	<path fill-rule="evenodd" clip-rule="evenodd" fill="#ACCEE5" d="M326.004,461.082c4.258,0.385,7.746,3.696,12.555,2.759
		c1.682-0.328,4.828,1.162,5.446,4.146c-3.358,3.071-7.564,3.07-11.616,2.726c-5.012-0.426-9.772,0.215-14.628,1.369
		c-2.649,0.629-5.599,0.308-8.365-0.007c-1.343-0.152-3.06-0.959-2.913-2.854c0.129-1.671,1.436-2.75,2.98-2.916
		c5.243-0.563,9.656-4.263,15.14-3.927C325.041,462.406,325.535,461.536,326.004,461.082z"/>
	<path fill-rule="evenodd" clip-rule="evenodd" fill="#5795CC" d="M251.022,507.052c-1.774,0.174-3.392-0.29-4.898-1.201
		c-0.395-0.936-0.791-1.871-1.187-2.807C247.772,503.154,249.945,504.271,251.022,507.052z"/>
	<path fill-rule="evenodd" clip-rule="evenodd" fill="#5795CC" d="M405.929,330.954c-2.308-1.724-3.671-3.988-3.937-6.88
		C404.578,325.639,405.853,327.953,405.929,330.954z"/>
	<path fill-rule="evenodd" clip-rule="evenodd" fill="#5795CC" d="M219.962,478.059c-1.939-0.647-2.9-2.026-3.017-4.035
		C218.575,474.901,219.719,476.143,219.962,478.059z"/>
	<path fill-rule="evenodd" clip-rule="evenodd" fill="#5795CC" d="M216.958,474.056c-1.979-0.228-2.088-1.948-2.643-3.311
		C216.129,471.104,216.601,472.534,216.958,474.056z"/>
	<path fill-rule="evenodd" clip-rule="evenodd" fill="#5795CC" d="M407.914,332.972c-1.203-0.058-1.809-0.711-1.89-1.89
		C407.056,331.311,407.672,331.955,407.914,332.972z"/>
	<path fill-rule="evenodd" clip-rule="evenodd" fill="#5795CC" d="M399.925,320.992c-1.257-0.026-1.806-0.76-1.925-1.924
		C399.066,319.285,399.691,319.943,399.925,320.992z"/>
	<path fill-rule="evenodd" clip-rule="evenodd" fill="#5795CC" d="M408.877,336.765c-1.018-1.05-1.025-2.34-0.875-3.668
		C408.907,334.173,408.916,335.464,408.877,336.765z"/>
	<path fill-rule="evenodd" clip-rule="evenodd" fill="#5795CC" d="M400.939,322.969c-0.773-0.402-1.078-1.038-0.945-1.893
		C400.31,321.707,400.624,322.338,400.939,322.969z"/>
	<path fill-rule="evenodd" clip-rule="evenodd" fill="#5795CC" d="M397.941,318.974c-0.759-0.415-1.129-1.025-0.955-1.906
		C397.305,317.702,397.623,318.338,397.941,318.974z"/>
	<path fill-rule="evenodd" clip-rule="evenodd" fill="#5795CC" d="M220.981,480.054c-0.344-0.684-0.687-1.368-1.031-2.052
		C220.294,478.686,220.638,479.37,220.981,480.054z"/>
	<path fill-rule="evenodd" clip-rule="evenodd" fill="#5795CC" d="M244.964,503.058c-0.381-0.311-0.761-0.621-1.144-0.932
		C244.682,501.845,244.872,502.391,244.964,503.058z"/>
	<path fill-rule="evenodd" clip-rule="evenodd" fill="#5795CC" d="M396.936,317.022c-0.361,0.018-0.725,0.034-1.087,0.052
		C396.21,317.057,396.572,317.04,396.936,317.022z"/>
	<path fill-rule="evenodd" clip-rule="evenodd" fill="#5795CC" d="M401.927,323.983c-0.304-0.305-0.608-0.61-0.913-0.916
		C401.318,323.373,401.623,323.679,401.927,323.983z"/>
	<path fill-rule="evenodd" clip-rule="evenodd" fill="#5795CC" d="M222.978,482.177c-0.344-0.394-0.687-0.787-1.03-1.182
		C222.291,481.389,222.634,481.783,222.978,482.177z"/>
	<path fill-rule="evenodd" clip-rule="evenodd" fill="#5795CC" d="M222.005,481.051c-0.352-0.352-0.704-0.704-1.057-1.056
		C221.301,480.347,221.653,480.698,222.005,481.051z"/>
	<path fill-rule="evenodd" clip-rule="evenodd" fill="#5795CC" d="M321.944,349.01c0.314-0.298,0.629-0.597,0.942-0.895
		C322.572,348.414,322.258,348.712,321.944,349.01z"/>
	<path fill-rule="evenodd" clip-rule="evenodd" fill="#72A4D2" d="M280.114,381.915c-3.925,9.648-4.074,19.376-0.615,29.177
		c-0.835,0.291-1.667,0.585-2.498,0.879c-4.254-4.222-2.985-9.395-2.113-14.284c0.47-2.636-2.208-5.125,0.343-7.977
		c0.965-1.079-1.44-1.661-2.685-1.161c-2.269,0.91-4.455,2.027-6.512,2.982c-0.125,1.192,0.613,1.364,1.135,1.732
		c2.466,1.738,4.915,4.526,2.582,6.828c-2.046,2.021-5.604,1.526-8.396-1.205c-5.806-5.678-12.672-9.515-21.157-8.801
		c-3.384,0.284-7.151,0.586-8.355,4.897c-0.376,1.346-1.33,1.892-2.644,1.709c-7.174-0.996-14.343-2.026-21.515-3.047
		c0.434-1.965,1.78-2.834,3.647-2.605c10.7,1.309,19.992-4.271,30.054-6.049c4.779-0.844,9.327-3.719,14.238,1.111
		c3.157,3.104,13.663,0.279,16.653-3.347c1.826-2.214,4.009,1.146,5.907-0.462C278.62,381.924,279.46,382.029,280.114,381.915z"/>
	<path fill-rule="evenodd" clip-rule="evenodd" fill="#72A4D2" d="M270.782,318.707c0.265,2.694,4.773,2.54,4.155,4.825
		c-0.705,2.608-4.255,0.757-6.183,1.952c-2.238,1.389-4.552,2.762-6.468,4.535c-3.16,2.925-6.884,2.948-10.655,2.496
		c-8.99-1.077-17.904-1.734-26.634,1.583c-3.661,1.392-7.507,0.677-11.286,0.618c0.995-1.698,2.672-1.643,4.339-1.813
		c1.622-0.166,3.454-0.212,4.782-1.001c9.248-5.498,20.134-5.471,29.948-9.046c3-1.093,6.415,0.76,9.649-1.126
		c1.577-0.919,3.646-0.67,4.581-2.951C267.968,316.439,269.503,318.793,270.782,318.707z"/>
	<path fill-rule="evenodd" clip-rule="evenodd" fill="#72A4D2" d="M191.225,392.87c-0.293,0.092-0.593,0.156-0.897,0.192
		c-0.215-13.631,1.708-26.906,6.188-40.285c2.39,3.448,2.54,3.581,0.719,5.646c-1.683,1.908-2.242,4.03-2.152,6.415
		c0.162,4.323,0.389,8.64-1.845,12.608c-3.111,5.527,1.486,7.087,5.434,9.395C195.75,388.774,193.003,390.284,191.225,392.87z"/>
	<path fill-rule="evenodd" clip-rule="evenodd" fill="#72A4D2" d="M241.082,343.726c3.588-1.737,6.713,0.108,9.926,1.281
		C246.958,350.325,244.284,344.983,241.082,343.726z"/>
	<path fill-rule="evenodd" clip-rule="evenodd" fill="#72A4D2" d="M212.187,334.821c-2.429-0.344-4.858-0.688-7.287-1.033
		C206.723,329.696,207.853,329.856,212.187,334.821z"/>
	<path fill-rule="evenodd" clip-rule="evenodd" fill="#957F69" d="M211.017,325.014c-0.063-0.932-0.223-1.908,0.732-2.514
		c0.134-0.085,0.691,0.154,0.699,0.266c0.068,1.079-0.639,1.695-1.454,2.225L211.017,325.014z"/>
	<path fill-rule="evenodd" clip-rule="evenodd" fill="#72A4D2" d="M206.292,393.768c-0.765-0.253-1.53-0.507-2.295-0.761
		C205.184,391.99,205.764,392.8,206.292,393.768z"/>
	<path fill-rule="evenodd" clip-rule="evenodd" fill="#957F69" d="M213.983,320.051c0.396-1.255,1.068-2.168,2.559-2.068
		C215.929,318.969,215.244,319.866,213.983,320.051z"/>
	<path fill-rule="evenodd" clip-rule="evenodd" fill="#72A4D2" d="M283.101,353.262c-0.216,0.71-0.431,1.421-0.652,2.132
		C281.333,354.273,280.989,353.389,283.101,353.262z"/>
	<path fill-rule="evenodd" clip-rule="evenodd" fill="#72A4D2" d="M282.896,349.066c1.325,0.179,1.909,0.961,1.844,2.271
		C283.743,350.891,283.127,350.135,282.896,349.066z"/>
	<path fill-rule="evenodd" clip-rule="evenodd" fill="#72A4D2" d="M316.913,365.547c-0.118,0.077-0.236,0.154-0.354,0.231
		c-0.095-0.187-0.189-0.373-0.283-0.56c0.146-0.002,0.311-0.048,0.43,0.007C316.803,365.271,316.846,365.435,316.913,365.547z"/>
	<path fill-rule="evenodd" clip-rule="evenodd" fill="#957F69" d="M209.033,328.028c-0.099-0.877,0.223-1.55,0.981-2.009
		l-0.035-0.035c-0.327,0.668-0.655,1.336-0.982,2.004L209.033,328.028z"/>
	<path fill-rule="evenodd" clip-rule="evenodd" fill="#72A4D2" d="M271.674,317.261c0.308,0.132,0.615,0.264,0.922,0.396
		c-0.265,0.073-0.53,0.147-0.796,0.22C271.759,317.67,271.717,317.466,271.674,317.261z"/>
	<path fill-rule="evenodd" clip-rule="evenodd" fill="#957F69" d="M212.724,319.894c0.443,0.037,0.887,0.074,1.33,0.111
		C213.513,321.132,213.136,320.298,212.724,319.894z"/>
	<path fill-rule="evenodd" clip-rule="evenodd" fill="#957F69" d="M210.014,326.02c0.334-0.336,0.668-0.671,1.002-1.006
		c0,0-0.023-0.023-0.023-0.023c-0.338,0.332-0.676,0.663-1.015,0.994L210.014,326.02z"/>
	<path fill-rule="evenodd" clip-rule="evenodd" fill="#957F69" d="M208.997,327.988c-0.071,0.098-0.143,0.195-0.214,0.294
		c0.083-0.085,0.167-0.169,0.25-0.254L208.997,327.988z"/>
	<path fill-rule="evenodd" clip-rule="evenodd" fill="#72A4D2" d="M308.131,346.843c-2.509,3.536-4.321,2.604-5.285-1.02
		c-0.624-2.346-0.43-4.728-3.563-5.795c-1.592-0.543-1.877-3.337-0.29-4.205c3.004-1.644,2.968-3.438,1.668-6.061
		c-0.398-0.803-0.504-2.359-0.011-2.898c3.765-4.111,6.484-8.586,6.756-14.37c0.054-1.147,1.556-1.248,2.255-0.18
		c0.99,1.514,2.626,3.177,2.1,4.927c-1.358,4.516,1.181,7.578,3.315,10.879c-1.576,1.708-3.266,3.375-3.816,5.725
		c-0.396,1.685-2.869,3.913,1.182,4.7c1.371,0.268,1.021,2.016,0.871,3.047c-0.182,1.238-1.389,1.242-2.393,0.99
		c-1.914-0.48-3.289-0.103-3.711,2.058c-0.877,1.208-0.61,1.989,0.861,2.324L308.131,346.843z"/>
	<path fill-rule="evenodd" clip-rule="evenodd" fill="#5795CC" d="M308.07,346.964c-1.472-0.335-1.738-1.116-0.861-2.324
		C307.842,345.285,308.291,346,308.07,346.964z"/>
	<path fill-rule="evenodd" clip-rule="evenodd" fill="#957F69" d="M276.275,266.276c0.13,0.002,0.261,0.002,0.392,0.002
		c-0.066,0.166-0.133,0.333-0.199,0.499c-0.109-0.064-0.255-0.106-0.313-0.202C276.122,266.519,276.231,266.378,276.275,266.276z"/>
	<polygon fill-rule="evenodd" clip-rule="evenodd" fill="#957F69" points="263.966,289.02 264.145,289.156 264.021,288.965 	"/>
	<polygon fill-rule="evenodd" clip-rule="evenodd" fill="#371921" points="432.074,328.943 432.243,329.253 431.938,329.082 	"/>
	<polygon fill-rule="evenodd" clip-rule="evenodd" fill="#957F69" points="142.029,415.982 141.846,415.856 141.985,416.027 	"/>
	<path fill-rule="evenodd" clip-rule="evenodd" fill="#957F69" d="M167.755,361.78c-0.209-2.37,0.341-4.334,2.808-5.28
		C171.502,359.255,171.041,361.268,167.755,361.78z"/>
	<path fill-rule="evenodd" clip-rule="evenodd" fill="#72A4D2" d="M321.148,422.091c1.521-1.677,3.045-3.353,4.568-5.03
		c1.957,0.207,4.221,1.149,5.812,0.482c4.602-1.929,9.29-2.049,13.896-1.105c4.121,0.845,7.329,0.829,9.848-3.135
		c0.787-1.238,2.729-2.484,4.109-2.449c3.098,0.08,4.234-2.012,5.734-3.886c5.627-0.338,7.35,1.646,8.807,7.804
		c1.508,6.374-1.126,5.977-4.838,7.66c-4.946,2.243-9.145,3.759-14.279,0.148c-1.912-1.344-5.728-1.196-8.18-0.329
		C338.014,425.293,329.622,423.62,321.148,422.091z"/>
	<path fill-rule="evenodd" clip-rule="evenodd" fill="#ACCEE5" d="M365.115,406.968c-1.5,1.874-2.637,3.966-5.734,3.886
		c-1.38-0.035-3.322,1.211-4.109,2.449c-2.519,3.964-5.727,3.979-9.848,3.135c-4.605-0.943-9.294-0.823-13.896,1.105
		c-1.591,0.667-3.854-0.275-5.812-0.482c2.969-3.79,4.602-8.281,6.594-12.579c4.941-1.826,9.715-1.889,14.153,1.388
		c2.825,2.084,5.462,0.202,8-0.585C358.4,404.065,361.92,404.137,365.115,406.968z"/>
	<path fill-rule="evenodd" clip-rule="evenodd" fill="#72A4D2" d="M347.965,444.077c3.763-0.593,5.716,2.959,8.832,3.885
		c0.74,0.22,1.391,1.451,1.977,1.377c5.47-0.693,10.848,3.616,16.447,0.025c2.174-1.394,4.969-1.735,7.713-0.964
		c5.582,1.567,11.619-1.602,17.064,1.587c-2.573,2.98-6.092,3.86-9.529,2.826c-2.996-0.901-5.484-0.357-8.076,0.654
		c-4.953,1.935-9.939,2.643-15.108,0.938c-0.622-0.205-1.356-0.406-1.964-0.271C356.43,456.108,351.502,451.307,347.965,444.077z"/>
	<path fill-rule="evenodd" clip-rule="evenodd" fill="#72A4D2" d="M285.16,419.814c2.518,1.999,5.036,3.997,7.556,5.994
		c-3.496,0.357-6.914-0.003-10.383-0.64c-4.953-0.909-9.531-3.632-14.978-2.473c-2.102,0.446-4.336-1.559-5.977-3.162
		c-1.894-1.85-1.178-4.471,1-4.606c2.668-0.166,4.824-2.472,7.589-1.455c3.57,3.741,8.02,3.474,12.567,2.762l0.11,0.375
		c0,0-0.372,0.119-0.366,0.117c-0.085,1.438,0.571,2.109,2.024,1.961l-0.054,0.262c0,0-0.262-0.052-0.261-0.053
		C284.378,419.202,284.77,419.509,285.16,419.814z"/>
	<path fill-rule="evenodd" clip-rule="evenodd" fill="#72A4D2" d="M383.054,434.781c-1.621,0.981-3.372,1.796-4.896,0.09
		c-1.461-1.636-3.29-1.755-5.794-1.307c1.503-2.027,3.188-3.189,2.283-5.281C379.953,427.207,381.855,430.538,383.054,434.781z"/>
	<path fill-rule="evenodd" clip-rule="evenodd" fill="#ACCEE5" d="M282.534,416.234c-4.547,0.712-8.998,0.979-12.567-2.762
		c2.345-0.501,4.689-1.001,7.034-1.502c0.832-0.294,1.663-0.588,2.498-0.879C280.513,412.808,281.524,414.521,282.534,416.234z"/>
	<path fill-rule="evenodd" clip-rule="evenodd" fill="#72A4D2" d="M294.515,426.436c4.97,1.796,10.236,1.054,15.328,1.787
		c-4.216,1.669-8.745,0.257-13.069,1.374C294.546,430.172,294.125,428.328,294.515,426.436z"/>
	<path fill-rule="evenodd" clip-rule="evenodd" fill="#72A4D2" d="M346.994,443.117c0.316,0.299,0.632,0.598,0.947,0.897
		C347.625,443.715,347.311,443.416,346.994,443.117z"/>
	<path fill-rule="evenodd" clip-rule="evenodd" fill="#72A4D2" d="M292.861,425.75c0.643,0.175,1.342,0.291,1.238,1.222
		C293.687,426.565,293.274,426.158,292.861,425.75z"/>
	<path fill-rule="evenodd" clip-rule="evenodd" fill="#ACCEE5" d="M284.302,418.688c-1.453,0.148-2.109-0.523-2.024-1.961
		C283.421,416.892,283.776,417.878,284.302,418.688z"/>
	<path fill-rule="evenodd" clip-rule="evenodd" fill="#ACCEE5" d="M285.16,419.814c-0.391-0.306-0.782-0.612-1.173-0.918
		C284.377,419.203,284.769,419.509,285.16,419.814z"/>
</g>
</svg>
