<?xml version="1.0" encoding="utf-8"?>
<!-- Generator: Adobe Illustrator 16.2.0, SVG Export Plug-In . SVG Version: 6.00 Build 0)  -->
<!DOCTYPE svg PUBLIC "-//W3C//DTD SVG 1.1//EN" "http://www.w3.org/Graphics/SVG/1.1/DTD/svg11.dtd">
<svg version="1.1" id="레이어_1" xmlns="http://www.w3.org/2000/svg" xmlns:xlink="http://www.w3.org/1999/xlink" x="0px"
	 y="0px" width="612px" height="792px" viewBox="0 0 612 792" enable-background="new 0 0 612 792" xml:space="preserve">
<path fill-rule="evenodd" clip-rule="evenodd" fill="#D2DCE3" d="M173.609,318.583c-0.006-3.735-2.215-6.612-3.794-9.733
	c-0.068-3.473-0.079-6.947-0.227-10.417c-0.079-1.86-0.216-3.806-2.438-4.576c-0.348-2.718-2.172-4.404-4.175-5.965
	c-1.909-3.079-1.993-7.197-5.478-9.412c-0.713-0.453-0.811-1.561-0.319-2.392c0.546-0.921,1.526-0.633,2.361-0.604
	c3.951,0.133,7.892,1.064,11.854,0.133c4.737,0.342,9.446,1.258,14.227,0.713c3.432,0.205,6.864,0.41,10.296,0.615
	c8.798,0.815,17.128,4.484,26.093,4.279c0.75,0.107,1.5,0.214,2.25,0.321c0.969,0.763,2.054,1.169,3.301,1.083
	c2.258,0.772,4.516,1.544,6.774,2.316c0.129,0.236,0.326,0.325,0.589,0.265c0.547,0.136,1.095,0.272,1.643,0.409
	c4.498,1.781,8.995,3.561,13.493,5.341l-0.045-0.089c0.152,0.914,0.933,0.861,1.574,1.023c3.833,2.44,7.615,4.964,11.516,7.291
	c2.505,1.494,4.958,3.199,7.969,3.619c2.479,1.407,4.959,2.814,7.438,4.22c1.076,1.107,2.485,1.737,3.619,2.86
	c3.401,3.371,6.507,6.988,9.662,10.57c0.533,1.194,1.342,2.163,2.399,2.927c2.567,4.137,5.134,8.273,7.702,12.411
	c0.923,1.773,0.522,4.536,3.543,4.743c0.26,1.277-0.374,2.471,0.241,3.9c5.289,12.295,11.026,24.342,18.534,35.472
	c2.237,3.441,4.477,6.881,6.711,10.323c3.461,5.33,6.142,5.829,11.315,1.942c3.537-2.657,6.312-6.361,10.827-7.68
	c0.613-0.18,1.278-0.919,1.511-1.55c2.192-5.939,5.386-11.51,6.583-17.814c1.848-4.193,3.667-8.396,4.745-12.871
	c3.982-7.137,6.084-15.104,9.849-22.336c0.175-0.475,0.351-0.949,0.526-1.424l-0.01-0.003c0.686-0.666,1.251-1.398,1.352-2.394
	c0.154-0.163,0.212-0.354,0.174-0.576c0.919-0.867,1.522-1.916,1.833-3.138c0.833-0.305,1.062-1.009,1.182-1.785
	c1.527-1.712,2.688-3.635,3.351-5.843c3.401-5.262,6.962-10.437,9.119-16.391c3.306-4.476,6.611-8.951,9.917-13.425
	c2.594-1.959,3.671-5.093,5.745-7.512c2.82-3.292,5.862-6.445,8.42-9.976c0.469,0.092,0.649-0.158,0.684-0.58
	c0.222-0.221,0.442-0.441,0.664-0.662c6.384-5.416,11.4-12.251,18.042-17.401c1.97-2.04,4.862-3.114,6.156-5.864
	c2.858-1.245,5.082-3.375,7.468-5.29c0.889-0.713,1.836-2.267,3.023-1.386c1.449,1.076-0.015,2.431-0.439,3.629
	c-0.163,0.462-0.402,0.896-0.608,1.343c-2.071,3.027-5.313,5.424-6.287,8.971c-1.056,3.841-2.316,7.43-4.755,10.576
	c-1.485,2.684-4.44,4.352-5.199,7.536c-2.845,4.595-3.771,9.766-4.503,14.994c-1.098,0.623-0.817,1.485-0.413,2.37
	c-0.094,0.711-0.187,1.423-0.28,2.136c-3.518,4.14-4.754,9.416-7.049,14.163c-3.149,2.489-4.049,6.104-4.879,9.753
	c-0.269,0.07-0.368,0.24-0.3,0.509c-0.536,0.827-1.072,1.653-1.608,2.48c-2.254,2.879-5.451,5.454-4.707,9.601
	c0.427,2.377,0.432,4.651,0.243,6.99c-0.462,1.222-0.925,2.444-1.388,3.665c-2.736,4.889-4.063,10.483-7.515,15.015
	c-0.715,1-1.937,2.06-1.497,3.251c1.326,3.593-1.022,5.866-2.637,8.43c-1.187,1.885-2.428,3.734-3.646,5.6
	c-7.018,6.304-12.286,14.22-19.093,20.72c-0.787,0.751-1.806,1.682-0.764,2.846c1.687,1.882,2.043,4.34,3.088,6.495
	c-0.96,5.021,2.632,9.639,1.593,15.399c-3.835-3.564-7.653-5.281-12.288-3.529c-2.743,0.193-4.689,1.73-6.341,3.763
	c-1.093,0.544-1.98,1.291-2.424,2.473c-0.051,0.47-0.102,0.94-0.151,1.411l0.001-0.092c-2.245,4.267-3.301,8.782-2.85,13.613
	c-0.361,4.973,0.527,10.095-1.768,14.838c-1.807,3.784-3.613,7.569-5.419,11.355c-2.599,4.98-6.464,9.101-9.373,13.903
	c-2.649,4.376-7.172,7.237-10.858,10.769c-2.571,2.463-4.037,5.252-4.839,8.637c-1.953,8.247-3.478,16.601-6.023,24.702
	c-0.373,1.19-0.655,2.469-1.306,3.503c-5.028,7.988-10.24,15.86-14.632,24.238c-0.939,1.792-2.58,3.316-4.668,3.468
	c-3.961,0.286-5.361,2.615-5.44,6.111c-0.066,2.94-1.489,3.804-4.287,3.692c-11.71-0.464-23.429-1.115-35.139-1.003
	c-5.461,0.053-10.923-1.385-16.387-0.064c-0.665,0.161-1.697,0.132-2.108-0.271c-0.805-0.786,0.118-1.563,0.51-2.295
	c3.042-5.686,7.779-10.039,11.798-14.952c7.75-9.477,15.419-19.001,20.305-30.377c2.383-5.548,6.235-10.23,8.973-15.566
	c0.867-1.689,1.81-3.376,1.783-5.267c-0.133-9.362,2.253-18.292,4.412-27.276c0.486-2.023,2.154-4.473,0.939-6.064
	c-1.658-2.172-4.178-4.222-6.739-5.042c-3.602-1.153-7.341-2.541-11.315-2.099c-3.651-1.868-9.668-0.845-9.328-7.621
	c0.006-0.129-0.365-0.293-0.576-0.413c-1.9-1.085-3.803-2.164-5.706-3.245c0,0-0.139,0.076-0.139,0.076
	c-0.262-0.316-0.523-0.632-0.785-0.947c-3.851-0.952-7.756-1.713-10.8-4.634c-1.104-1.059-2.697-1.096-4.21-1.221
	c-3.551-0.294-6.689-1.781-9.619-3.71c-1.25-0.822-2.423-1.756-2.113-3.595c0.357-2.118-1.041-2.174-2.549-2.02
	c-7.29-0.546-10.256-5.967-13.05-11.579c1.377-1.449,1.36-2.76-0.251-4.078c-1.621-1.326-3.146-2.77-4.712-4.16
	c-1.634-4.041-4.86-7.723-2.55-12.625c0.441-0.935-0.931-1.678-1.259-2.593c-0.786-2.186-2.778-4.3,1.033-6.137
	c1.985-0.957-0.085-2.934-0.992-3.927c-2.268-2.481-4.75-4.792-7.323-6.962c-2.171-1.829-4.162-3.603-3.958-6.771
	c0.083-1.28-0.965-1.952-1.665-2.811c-3.604-4.425-6.326-9.209-7.073-15.044c-0.338-2.645,1.789-4.828,0.698-7.582
	c-1.718-4.34,0.176-9.543-3.091-13.596C174.64,319.558,174.448,318.776,173.609,318.583z"/>
<path fill-rule="evenodd" clip-rule="evenodd" fill="#395986" d="M235.279,360.679c-0.818-0.623-1.444-1.413-1.857-2.388
	c1.975-2.841,1.208-7.547-1.521-9.306c-1.167-0.751-2.267-1.502-2.331-3.194c-0.076-2.049-1.838-1.763-2.461-1.15
	c-1.204,1.183-2.822,1.525-3.96,2.696c-1.919-1.147-3.837-2.296-5.755-3.443c0.6-0.39,1.199-0.78,1.799-1.171
	c4.333-0.566-0.404-4.278,1.982-5.61c1.127,0.821,2.773,1.855,3.761-0.053c0.845-1.637,1.85-2.407,3.964-2.238
	c-1.909-1.531-3.104-2.672-3.551-4.835c-0.703-3.416-2.936-4.335-6.22-3.096c-0.753,0.283-1.332,0.175-1.813-0.4
	c-0.517-0.616-0.401-1.295,0.002-1.956c0.949-1.563,2.461-2.206,4.638-2.581c-2.061-0.98-3.608-0.481-5.103-0.613l-0.082-0.108
	c0.077-0.186,0.139-0.382,0.237-0.556c0.652-1.143,2.745-1.925,1.762-3.395c-0.87-1.301-1.825,0.79-2.867,0.997
	c-0.188,0.038-0.382,0.046-0.57,0.081c-5.192,0.984-8.3,4.267-9.53,9.615c-1.38,0.334-2.757,0.683-4.142,0.998
	c-2.651,0.605-2.927,1.302-1.461,3.782c0.297,0.502,0.623,0.986,0.935,1.479c-3.479-1.451-6.959-2.903-10.438-4.355
	c0.231-0.939,0.813-1.581,1.561-2.102c0.311-0.217,1.269-0.396,0.587-0.895c-3.013-2.206-0.219-3.258,0.736-4.67
	c0.43-0.636,1.232-1.18,0.587-2.084c-0.501-0.704-1.182-0.471-1.832-0.158c-0.395,0.189-0.84,0.574-1.265-0.311
	c3.457-1.905-2.166-3.843,0.241-6.012c-2.207,1.253-4.082,0.349-6.444-0.695c0.777,1.736,1.353,3.022,0.042,4.058l-0.086,0.08
	l0.074-0.093c2.44,0.12,1.373,2.42,1.618,3.545c0.221,1.007-1.31,0.403-2.091,0.333c-0.816-0.071-1.717-0.4-2.254,1.108
	c3.345-0.579,2.434,3.555,5.102,3.976c-1.352,1.023-2.822,0.188-3.545,1.479c-0.965,0.07-1.804-0.262-2.553-0.884
	c0.076-0.118,0.151-0.236,0.228-0.353c0.146-0.073,0.292-0.145,0.437-0.218c-0.109-0.101-0.218-0.201-0.326-0.301
	c-0.081-0.098-0.159-0.198-0.236-0.3c-0.608-1.463-0.356-3.807-3.085-3.192c-0.16,0.036-2.232-0.689-2.676-2.056
	c0.947-2.917,3.426-2.441,5.433-2.409c1.445,0.024,2.663-0.588,2.575-1.633c-0.086-1.015-0.458-3.044-2.218-2.799
	c-1.259,0.176-1.757-0.504-2.362-1.282c-1.025-1.321-1.502-5.094-0.921-6.879c0.153-0.469,0.264-0.986,0.253-1.478
	c-0.026-1.279,0.961-1.815,1.687-1.57c2.086,0.707,1.602-0.886,1.531-1.923c2.504,0.33,1.889,3.531,4.007,4.063
	c1.864,0.467,3.869,0.473,5.542,1.625c0.76,0.521,1.621,0.597,2.438,0.874c2.319,0.787,2.903,2.385,1.863,4.77
	c-0.213,0.136-0.426,0.27-0.639,0.405c0.087,0.093,0.175,0.186,0.262,0.278c0.128-0.225,0.257-0.449,0.387-0.674
	c1.813-1.156,4.077,1.404,5.786-0.763c0.026-0.033,0.37,0.118,0.472,0.258c1.423,1.953,3.877,0.77,5.66,2.161
	c1.18,0.922,3.141-0.026,3.935-1.551c0.693-1.33,1.077-2.377,2.817-2.717c0.86-0.168,2.397-2.009,0.476-3.514l0.003,0.003
	c0.365-1.095,1.146-1.078,2.086-1.042c2.182,0.083,3.011-2.527,5.104-2.97c0.795-0.167-0.443-1.733-0.22-2.714l0.086-0.103
	l-0.101,0.088c-3.229-0.945-5.789,1.517-8.768,2.005c-2.364,0.388-4.519-0.617-4.487-3.331c0.021-1.785,0.217-3.577,0.447-5.35
	c0.188-1.454-0.143-2.728-1.458-3.154c-1.536-0.498-1.938-1.782-2.532-3.013c1.629-0.362,2.906,1.366,4.673,0.813
	c0.478-0.148,2.147,0.902,0.115,1.689c-0.002,0-0.199-0.075-0.199-0.075l0.081,0.213c2.851,3.328,4.169-0.539,6.111-1.46
	c1.858,2.407,3.015,5.214,4.251,7.976l-0.084,0.146l0.14-0.089c3.259,1.305,2.857-2.313,4.388-3.717
	c0.877,1.188,1.719,2.332,2.559,3.476c0.296,0.401,0.546,1.119,0.885,1.165c4.149,0.586,1.656,3.471,1.619,5.372
	c-0.03,1.526-1.086,3.057,1.334,3.808c0.933,0.29,0.729,2.058,0.218,2.999c-0.538,0.99-1.628,0.549-2.576,0.624
	c-3.25,0.261-6.285-1.57-9.521-0.936c-1.438,0.281-3.6,1.523-2.806,2.485c1.076,1.298-0.27,5.604,3.628,3.955
	c0.369-0.156,0.928,0.186,1.398,0.296l0.031,0.04c-0.241,0.876-0.584,1.737-0.697,2.63c-0.112,0.895,0.539,1.465,1.147,1.99
	c0.798,0.688,1.179,0.04,1.641-0.51c0.242-0.288,0.759-0.741,0.873-0.664c2.278,1.55,5.313,0.916,7.411,2.663
	c1.857,1.546,6.231,1.454,7.41-0.653c0.669-1.197,0.844-2.653,2.296-3.325c0.699-0.324,0.173-1.015-0.116-1.547
	c-0.85-1.566-0.003-3.771,1.563-4.208c1.07-0.298,1.002,0.617,1.226,1.226c0.308,0.835,0.39,1.948,1.421,2.104
	c1.201,0.182,1.208-1.05,1.573-1.823c1.71-3.613,6.056-4.094,8.545-0.927c0.452,0.573,0.911,0.975,1.655,1.074
	c1.042,0.139,2.033-1.638,3.102-0.04c1.82,2.725,5.089,4.482,5.028,8.462c-0.02,1.379,0.121,2.712,2.694,3.06
	c-4.317,1.846-4.241,3.704-1.802,6.395c1.287,1.422-0.049,3.389-1.457,3.772c-2.246,0.613-3.707,2.294-5.546,3.435
	c-1.792,1.11-0.943,2.858-0.857,4.41l0.017-0.03c-0.04,0.068-0.118,0.14-0.111,0.203c0.016,0.149,0.071,0.294,0.111,0.441
	l-0.017-0.023c-0.275,1.702-0.724,2.954,2.06,2.458c2.039-0.363,4.031,0.315,5.335-2.158c0.543-1.028,1.273,0.217,1.91,0.519
	c0.996,0.473,0.976,1.759,2.064,2.374c1.309,0.739,2.088,2.485,3.831,0.731c0.381-0.384,1.074,0.207,1.534,0.588
	c1.966,1.628,4.24,2.271,6.696,2.528c1.656,0.174,2.772,1.275,3.262,3.003c0.456,1.603-0.05,2.756-1.401,3.605
	c-0.49,0.308-1.585,1.07-0.492,1.394c1.255,0.37,1.052,3.283,3.025,1.834c1.685-1.238,3.068-2.773,3.737-4.909
	c0.787-2.51,1.271-2.617,3.195-0.884c0.242,0.219,0.958,0.33,0.986,0.265c0.874-2.008,2.837-0.613,3.726-1.204
	c2.868-1.905,4.974,0.414,7.396,0.806c-0.513,1.802-1.411,3.371-2.592,4.767c-0.414-0.827-0.478-1.929-1.949-0.961
	c-1.462,0.96-1.479,1.774-0.535,2.998l0.001-0.003c-0.639,0.171-1.581,0.208-1.592,1.002c-0.013,0.958,0.982,0.678,1.588,0.831
	l0.153,0.149c0.029,0.18-0.015,0.337-0.134,0.47c-0.694,0.444-1.122,1.049-1.045,1.952l0.007,0.003
	c-0.748,0.148-1.153,0.431-0.407,1.161c-2.913,5.899-4.539,12.397-7.619,18.219c-1.203-1.548-3.274-1.005-4.604-2.526
	c-0.138,0.666-0.259,0.961-0.251,1.254c0.088,3.534,0.093,3.533-3.196,2.567c-0.091-0.026-0.191-0.019-0.289-0.026l-0.136-0.085
	l0.081,0.143c-0.651,2.614-3.685,4.066-5.073,2.181c-1.838-2.498-2.971-1.576-4.466,0.125c-0.64,0.728-1.408,1.818-2.029,2.02
	c-3.814,1.232-0.908,3.319-0.303,4.383c0.713,1.257,2.686,1.505,3.885,0.521c1.757-1.442-0.877-0.697-0.888-1.542
	c-0.015-1.089-0.028-2.083,1.124-2.431c0.823-0.248,1.708-0.265,2.564-0.384l-0.005-0.007c0.17,0.999-0.502,2.498,1.09,2.702
	c1.316,0.169,1.664,0.717,1.388,2c-0.264,1.231-0.699,1.968-2.125,1.884c-2.176-0.127-4.314,0.004-6.153,1.65
	c-2.929,2.626-2.976,2.567-4.93-0.578c-0.881,1.395,0.353,2.744,0.178,3.599c-3.835,2.162-4.477-3.306-7.623-3.089
	c-0.574,0.039-0.721-0.848-0.611-1.502c0.258-1.536,0.761-2.667,2.234-3.607c2.41-1.538,6.668-1.851,5.046-6.902
	c-0.296-0.925,0.615-3.005,1.407-2.427c2.406,1.756,4.097-0.385,6.083-0.632c1.884-0.236,3.219-1.327,3.447-3.502l-0.013,0.015
	c1.675,0.142,3.359-0.174,3.607-2.147c0.233-1.867-1.84-1.688-2.848-2.464c-0.35-0.269-0.921-0.245-1.397-0.307
	c-1.695-0.225-2.666-0.7-1.909-2.946c1.095-3.25,0.944-6.422-1.876-9.115c-0.1,2.554-0.199,2.325-2.105,3.248
	c-1.371,0.664-1.871-0.237-2.324-0.931c-0.796-1.219-1.167-2.561,0.438-3.637c0.818-0.55,0.933-2.23,0.109-1.943
	c-1.933,0.672-3.219-5.49-5.222-0.458c-0.035,0.09-0.869-0.202-1.336-0.271c-2.141-0.313-2.548,0.098-2.426,2.518
	c0.045,0.882-0.501,0.942-1.089,1.059c-1.501,0.299-2.94,0.128-4.023-1.054c-1.295-1.413-1.917-3.62-4.604-2.981
	c-0.815,0.193-0.854-1.612-1.012-2.581c-0.156-0.959,0.063-2.151-1.539-1.979c0.453,3.567,1.545,7.153-1.072,10.362
	c-0.733,0.899-0.123,1.931,0.464,2.784c-0.871,0.819-1.729,1.662-2.948,1.868c-1.364-2.833-4.624-4.363-4.616-8.26
	C238.863,359.068,236.779,359.018,235.279,360.679z M246.981,335.947l0.044,0.045c0.042,1.449,0.585,1.979,2.114,2.138
	c2.693,0.281,4.245-1.968,4.398-3.485c0.176-1.743-0.227-4.32-1.786-5.809c-0.863-0.822-1.245-1.397-0.792-2.523
	c0.205-0.511,0.667-1.213-0.147-1.533c-0.508-0.199-1.162-0.18-1.704-0.047c-0.975,0.238-0.332,0.895-0.236,1.423
	c0.414,2.302-0.578,3.458-2.727,3.615c-1.976,0.144-3.837,2.446-5.982,0.274c-0.313-0.317-0.989,0.379-1.296,0.946
	c-0.476,0.878-1.021,1.716-1.483,2.602c-0.988,1.891-1.542,4.143,0.334,5.419c1.745,1.188,3.997,1.411,5.597-0.955
	C244.175,336.781,245.4,335.955,246.981,335.947z M202.229,318.836c-0.475,0.101-0.986,0.104-1.397,0.319
	c-0.972,0.511-2.054,1.18-1.244,2.527c0.817,1.359,1.294,0.058,1.956-0.427c1.03-0.755,1.942-0.296,2.557,0.773
	c0.667,1.161,1.318,0.213,1.954,0.001c0.434-0.146,1.032-0.28,0.964-0.938c-0.096-0.93-0.897-0.864-1.522-1.07
	C204.404,319.666,203.332,319.241,202.229,318.836z M262.761,348.519c0.132-0.483,0.256-0.739,0.25-0.991
	c-0.005-0.142-0.211-0.375-0.351-0.395c-0.36-0.053-0.502,0.26-0.438,0.556C262.271,347.923,262.488,348.117,262.761,348.519z
	 M244.163,362.717c-0.115,0.129-0.32,0.266-0.305,0.366c0.021,0.141,0.206,0.253,0.321,0.378c0.105-0.121,0.303-0.252,0.291-0.358
	C244.453,362.964,244.272,362.846,244.163,362.717z M222.113,305.834c-0.261,0.005-0.315,0.121-0.136,0.325
	c0.022,0.024,0.146-0.051,0.224-0.081C222.172,305.997,222.142,305.916,222.113,305.834z"/>
<path fill-rule="evenodd" clip-rule="evenodd" fill="#395986" d="M350.543,422.777c0.839-0.034,1.584-0.269,2.025-1.104
	c0.433-0.821,0.956-1.199,1.763-0.468c0.83,0.754,0.298,1.16-0.308,1.659c-0.651,0.538-0.729,1.071,0.037,1.737
	c1.036,0.899,1.17,2.132,0.617,3.412c-0.521,1.206-1.052,2.401-0.594,3.993c-1.237-0.598-2.421,0.805-3.723-0.443
	c-0.37-0.354-1.773,0.584-2.907,0.594c-1.546,0.013-2.979,1.073-4.158,2.263c-0.549-0.59,0.213-1.07-0.195-1.87
	c-1.199,1.494-3.146,1.389-4.649,2.787c0.056-1.282-0.32-2.406,0.224-3.533c0.193-0.402,0.08-0.835-0.22-1.169
	c-0.432-0.478-0.917,0.206-0.935,0.191c-1.16-1.017-2.407,1.949-3.502-0.079l0.054-0.053l-0.048,0.059
	c-1.832-0.107-1.931-1.528-1.949-3.405c-0.668,1.159-1.317,1.119-2.199,0.981c-1.119-0.175-2.076,1.149-3.358,0.799
	c-0.318-0.087-0.682-0.097-1.006-0.035c-0.966,0.184-1.049-2.006-2.381-0.911c-0.795,0.654-1.918-0.057-2.785,0.647
	c-0.063-1.556-2.096-2.931-3.521-2.382c-0.948,0.364-1.445,0.26-1.525-0.848c-0.033-0.479-0.274-0.744-0.627-1
	c-0.965-0.698-1.348-1.742-1.506-2.917c-0.239-1.781-0.91-2.185-2.232-1.247c-0.669,0.474-1.161,0.281-1.725-0.088
	c-1.424-0.931-2.515-2.401-4.477-2.434c-1.047-0.019-0.133-1.049-0.27-1.744c-1.597,0.463-2.13-0.437-2.34-1.971
	c-0.157-1.143-0.811-1.724-2.018-0.567c-0.018-1.032,0.17-1.98-1.041-2.038c-0.414-0.021-0.346-0.544-0.286-0.906
	c0.096-0.581-0.169-0.806-0.679-0.692c-0.666,0.148-0.995-0.209-1.417-0.709c-0.616-0.729-1.351-0.512-1.868,0.244
	c-0.388,0.566-1.009,1.303-0.017,1.779c1.024,0.494,0.904,1.17,0.675,2.059c-0.273,1.061-1.144,1.366-1.863,1.237
	c-2.268-0.408-4.469,0.535-6.695,0.047c-0.132,1.316,1.126,1.648,1.332,2.618c-0.102,0.216-0.152,0.491-0.312,0.637
	c-1.992,1.821-4.788,2.284-6.655,4.356c-0.271,0.302-0.737-0.063-0.936-0.499c-0.165-0.361-0.418-0.688-0.711-0.165
	c-0.511,0.908-0.988,0.435-1.537,0.07c-0.779-0.519-1.128-0.308-1.363,0.698c-0.219,0.937,0.356,1.326,0.732,1.869
	c0.878,1.267,0.502,2.937-0.781,2.727c-2.027-0.332-2.296,0.619-2.471,2.169c-0.016,0.135-0.218,0.319-0.36,0.354
	c-1.316,0.32-0.812,1.117-0.463,1.879c0,0.002-0.053,0.078-0.053,0.078c-0.521,0.174-0.848,0.525-0.929,1.107
	c-0.373,0.691,0.166,1.218,0.295,1.819c0.108,0.5,0.363,1.105-0.317,1.344c-0.751,0.263-0.971-0.305-1.079-0.94
	c-0.093-0.016-0.186-0.031-0.278-0.047c-0.23,0.142-0.461,0.282-0.691,0.423c0.059-1.042-0.363-1.482-1.398-1.533
	c-1.526-0.076-1.091,1.448-1.616,2.145c-0.654,0.868,0.615,0.591,0.918,0.952c0.146,0.175,0.254,0.385,0.379,0.579
	c-0.931,0.316-1.422,1.083-1.809,1.956c-1.575-0.099-3.15-0.198-4.726-0.297c0.131-0.841,0.384-1.703-0.356-2.4
	c0.262-0.087,0.582-0.111,0.641-0.463c0.013-0.073-0.229-0.292-0.318-0.271c-0.354,0.082-0.302,0.434-0.343,0.714
	c-0.44,0.39-0.885,0.73-0.989-0.253c-0.139-1.314-0.924-1.959-2.053-2.271c0.282-0.886-1.144-1.503-0.565-2.173
	c1.096-1.27,1.688-2.665,1.838-4.324c0.311-0.406,0.491-0.979-0.077-1.11c-0.8-0.184-0.734,0.605-0.788,1.162
	c-0.245,0.017-0.491,0.034-0.736,0.051c-1.153-1.094-2.339-2.132-3.885-2.569c-0.029-0.129-0.058-0.259-0.087-0.389
	c0.766-1.039,0.188-3.655-0.987-4.374c-0.28-0.172-0.748-0.158-0.693-0.631c0.053-0.452,0.49-0.427,0.818-0.483
	c1.123-0.193,1.142-0.971,1.241-1.876c-1.018-0.034-1.126,1.366-2.014,0.782c-0.692-0.454-0.235-1.221-0.353-1.836
	c0.354-0.676,0.722-1.289,1.587-0.683c0.522,0.367,1.069,0.397,1.604,0.005c0.883,0.096,1.815-0.667,2.667,0.396
	c0.35,0.438,0.618-0.166,0.62-0.625c0.006-1.174,0.633-1.222,1.479-0.926c0.801,0.28,1.61,0.531,2.416,0.795
	c-0.117,0.331-0.166,0.717-0.363,0.981c-0.738,0.993-1.954,1.19-2.896,1.843c-0.931,0.645-1.873,1.515-1.316,2.787
	c0.491,1.123,0.631,3.024,2.712,2.245c0.754-0.283,1.321,0.127,1.898,0.807c0.716,0.844,1.327,1.996,2.559,2.149
	c1.31,0.163,1.389-1.14,1.971-1.894c0.485-0.63,0.506,0.113,0.58,0.459c0.001,0-0.049,0.092-0.049,0.092l0.087-0.052
	c0.508-0.15,0.719-0.589,0.844-1.055c0.178-0.658,0.985-1.283,0.458-1.959c-0.485-0.62-1.141-0.026-1.72,0.187
	c-0.977,0.358-1.163-0.508-1.404-1.146c-0.313-0.83,0.254-0.981,0.866-1.159c2.052-0.593,2.045-0.611,0.939-2.101
	c-0.063-0.084-0.083-0.229-0.072-0.339c0.118-1.173-1.031-1.124-1.4-1.636c-1.071-1.489-1.354,0.056-1.954,0.306
	c-0.621,0.26-1.119,0.202-1.396-0.526c0.862-1.612,1.861-2.742,3.685-1.237c0.149,0.124,0.444,0.049,0.671,0.076
	c2.344,0.283,3.34,2.283,4.439,4.032c0.6,0.955,0.991,0.705,1.528,0.146c1.41-1.468,2.671-1.427,3.892,0.226
	c0.356,0.48,0.526,1.063,1.306,0.779c0.698-0.254,0.956-0.801,1.14-1.46c0.192-0.691-0.105-1.01-0.721-1.146
	c-0.371-0.082-0.673-0.282-0.438-0.752c0.173-0.344,0.461-0.546,0.854-0.41c0.541,0.187,1.077,0.387,1.61,0.597
	c0.415,0.164,0.982,0.192,1.025-0.26c0.148-1.532,1.208-1.652,2.279-1.907c1.319-0.313,0.775-1.47,0.68-2.218
	c-0.132-1.028-0.836-0.491-1.3-0.211c-0.901,0.543-1.557-0.015-1.756-0.724c-0.273-0.978-0.578-0.509-0.854-0.161
	c-0.95,1.199-2.393,1.524-3.594,2.266c-0.835,0.517-2.005,0.007-2.479-0.399c-1.688-1.456-1.445-3.056,0.429-4.852
	c3.213,0,6.427,0,9.641,0c3.534,0.744,7.15-0.082,10.687,0.613c1.354-0.083,2.709-0.234,4.064-0.239
	c8.16-0.033,16.32-0.033,24.48-0.045c1.949,0.155,3.94-0.302,5.849,0.445c-0.046,1.381,0.159,2.556,1.485,3.359
	c0.727,0.44,0.817,1.852,2.157,1.512c0.367-0.094,0.384,0.477,0.344,0.851c-0.053,0.481-0.301,1.417,0.438,1.102
	c0.714-0.305,2.032,1.063,2.227-0.891c0.098-0.98,0.053-2.253,1.294-2.729l-0.008,0.008c-0.072-0.482-0.137-0.939,0.436-1.186
	c0.553-0.237,1.112-0.627,0.709-1.329c-0.728-1.267-0.478,0.336-0.787,0.33c-0.093-0.002-0.244-0.059-0.27-0.13
	c-0.445-1.227-1.703-0.718-2.453-1.283c1.256-0.023,2.512-0.048,3.768-0.071c1.499,0.043,2.998,0.086,4.497,0.129
	c1.36,0.576,0.502,1.317,0.065,1.9c-1.276,1.7-1.131,2.311,1.122,4.138c1.209,0.98,2.475,0.688,3.496-0.772
	c0.358-0.513,0.563-1.746,1.28-1.204c0.816,0.615,0.54,1.559-0.317,2.397c-0.825,0.809-1.262,1.571-0.14,3.066
	c0.881,1.172,1.848,3.255,1,5.242c-0.117,0.116-0.508,0.011-0.291,0.396C350.357,423.051,350.45,422.914,350.543,422.777z
	 M344.694,423.869l0.002,0.003c0.013-0.505-0.535-1.116,0.505-1.356c0.819-0.189,0.784-1.264,0.566-1.822
	c-0.318-0.813-0.942-0.187-1.437,0.046c-0.319,0.149-0.611,0.589-1.005,0.211c-0.115-0.744,1.542-1.539,0.401-1.822
	c-1.572-0.391-0.01-1.492-0.719-1.862c-0.305-0.159-0.626-0.14-0.763,0.127c-1.194,2.314-3.122,0.955-4.746,1.052
	c-0.433,0.026-2.639,2.229-2.557,2.705c0.056,0.318,0.311,0.247,0.501,0.344c1.21,0.616,1.862,2.3,1.682,3.038
	c-0.483,1.968,0.32,2.256,1.736,2.783c1.116,0.416,2.012,1.098,3.229,0.304c0.439-0.286,1.185-0.277,1.615,0.209
	c0.636,0.719-0.359,1.219-0.427,1.771c1.782,1.231,2.854-0.127,3.971-1.049c0.593-0.489,1.093-1.212,0.019-1.851
	c-0.434-0.258-0.434-0.635-0.196-1.079c0.269-0.501,1.253-0.756,0.585-1.6c-0.559-0.706-1.275-0.242-1.934-0.188
	C345.383,423.861,345.038,423.858,344.694,423.869z M332.97,422.503c-0.992,0.267-1.44-0.554-1.617-1.454
	c-0.388-1.976-1.435-3.036-3.362-3.198c-0.967-0.082-1.393-0.657-1.044-1.703c0.541-1.624-0.161-2.515-1.782-2.269
	c-1.776,0.27-3.646,3.053-3.302,4.928c0.042,0.231,0.067,0.524,0.21,0.666c0.969,0.958,1.092,2.649,2.651,3.164
	c0.433,0.142,0.951,0.936,0.602,1.855c-0.278,0.73,0.246,0.807,0.77,0.479c0.228-0.142,0.511-0.555,0.608-0.504
	c1.709,0.892,3.69,0.409,5.405,1.202c2.247,1.04,2.241,1.05,2.09-1.432c-0.021-0.359,0.044-0.734-0.033-1.077
	C334.044,422.623,333.873,422.046,332.97,422.503z M323.811,413.023c-0.021-0.042-0.031-0.104-0.063-0.12s-0.084,0.017-0.127,0.029
	c0.035,0.063,0.069,0.127,0.104,0.192C323.754,413.091,323.782,413.057,323.811,413.023z"/>
<path fill-rule="evenodd" clip-rule="evenodd" fill="#4C709C" d="M316.994,439.25c0.706,1.828,1.29,3.765,0.489,7.163
	c1.302-3.276,2.881-4.09,4.5-4.784c0.49-0.211,1.108-0.871,1.192,0.086c0.067,0.767-0.396,1.34-0.85,1.756
	c-0.819,0.754-0.821,1.681-0.845,2.522c-0.061,2.087-0.472,4.211-1.307,6.501c-0.307,0.839-0.86,2.104-0.333,2.512
	c0.502,0.389,1.208-0.252,1.827-1.242c1.278-2.047,1.453-1.358,1.058,0.536c-0.607,2.905,0.413,2.159,1.574,1.097
	c1.533-1.4,3.063-3.069,2.611,0.985c-0.16,1.438,1.007,1.11,1.534-0.063c1.371-3.051,2.199-2.011,3.164-1.726
	c0.903,0.266,1.438,1.637,2.943,0.019c0.629-0.677,0.188,0.863,0.403,1.18l0.107-0.015c-0.111,0.297-0.222,0.594-0.332,0.892
	c-4.166,10.92-8.332,21.84-12.497,32.76c-0.133,0.288-0.266,0.577-0.399,0.865c-0.444,1.094-0.888,2.188-1.331,3.282
	c-0.111,0.267-0.223,0.536-0.334,0.804c-0.79,2.072-1.579,4.145-2.367,6.216c-0.185,0.503-0.37,1.007-0.555,1.509
	c-0.765,2.075-1.528,4.151-2.293,6.225c-0.365,0.425-0.571,0.927-0.612,1.507c-0.5,1.323-1.001,2.648-1.501,3.973
	c-0.546,0.196-0.651,0.561-0.407,1.061c-0.328,0.851-0.656,1.701-0.984,2.553c-0.519,0.64-0.808,1.386-0.898,2.226
	c-1.215,3.218-2.43,6.436-3.646,9.652c-0.519-0.119,0.153-2.211-0.356-1.604c-1.229,1.461-2.606,0.736-3.674,3.317l-0.123,0.114
	c-1.983,1.342-2.69,3.806-3.285,6.509c-0.195,0.889,0.077,2.185-0.923,2.727c-0.708,0.384-1.54,0.185-1.445-0.97
	c0.256-3.153-1.046-1.783-2.291-0.918c-0.854,0.594-1.704,0.935-2.554,1.387l-0.092,0.071l0.09-0.089
	c0.29,0.223,0.814,0.442,0.185,1.316c-1.521,2.111-3.013,4.374-4.722,5.903c-0.551,0.492-1.055,0.86-1.283,0.164
	c-0.693-2.12-2.53-2.174-3.309-4.204c-0.481-1.252-1.214-2.271-2.883,0.467c-0.986,1.619-1.995,0.975-2.734,0.643
	c-0.794-0.355,0.196-1.705,0.555-2.648c2.79-5.166,4.84-2.192,7.335-3.69c1.839-1.105,3.676-2.504,4.407-5.953
	c1.091-5.147,1.091-5.144,4.029-6.467c0.078-0.036,0.195-0.403,0.34-0.713c-0.095-0.176-0.155-0.543-0.299-0.514
	c-1.114,0.225-1.363-0.605-0.575-2.44c0.554-1.29,0.984-3.167,2.137-1.905c0.544,0.594,2.277-0.705,3.435-1.703
	c1.138-0.981-0.375-1.611,0.522-3.007c0.318-0.283,0.554-0.082,0.781,0.166c0.442,0.482,0.957,0.736,1.656-0.568
	c0.705-1.314,0.577-2.248,0.238-3.036c-0.258-0.601-0.636-0.896-1.166-0.958c-1.524-0.177-2.581-1.079-2.436-4.032
	c0.083-1.679-0.342-1.974-1.624-0.32c-1.167,1.503-1.624,0.809-1.158-1.233c0.2-0.145,0.398-0.287,0.598-0.429
	c-0.014-0.145-0.027-0.288-0.04-0.432c-0.193,0.214-0.385,0.428-0.579,0.643c-1.026-0.728-0.606-3.093,0.17-4.241
	c2.052-3.028,0.702-4.834,1.361-7.353c0.252-0.961-1.599,1.566-2.46,1.743c-0.268,0.055-0.52,0.006-0.756-0.059
	c-0.862-0.234-1.44-0.743-2.842,0.223c-1.92,1.32-3.62,2.558-5.39,5.036c-2.102,2.943-4.254,6.374-6.596,5.424
	c-0.362-0.146-0.961,0.638-1.474,1.215c-2.236,2.514-4.311,2.996-5.165,1.32c-0.082-0.339-0.163-0.678-0.244-1.017
	c1.233-1.524,2.473-3.029,3.699-4.577c1.668-2.106,3.572-3.809,4.247-7.398c0.224-1.191,1.17-1.963,1.86-2.769
	c0.696,0.674,1.837,0.336,2.348,1.422c0.19,0.406,0.253,1.185,0.852,0.335c0.462-0.655,0.416-1.332,0.293-1.889
	c-0.276-1.261-0.162-2.609,0.893-4.127c1.107-1.594,2.18-3.326,3.343-4.712c1.116-1.33,1.297-2.419,1.142-3.705
	c0.653-1.059,1.305-2.115,1.958-3.174c1.979-2.734,3.415-3.42,4.221-0.679c0.307,1.044,1.827-0.409,2.268,0.838
	c0.066,0.187,0.407-0.917,0.528-1.459l-0.015,0.014c0.755,2.332,1.176,5.189,3.508,4.884c0.564-0.072,0.53,2.183,1.39,0.854
	c0.992-1.531-0.292-1.685-0.347-2.679c-0.015-0.283-0.031-0.565-0.048-0.887c3.644-0.875,5.247-4.221,7.522-6.966
	c3.825-4.61,3.211-8.439,4.401-12.958c-1.002,0.609-2.366,2.901-2.523,1.17c-0.114-1.265,1.205-2.717,2.133-3.731
	c0.14-0.153,0.29-0.254,0.435-0.386c1.188-1.078,1.12-2.711,0.566-2.528c-1.346,0.443-1.935-2.756-3.953,0.871
	c-0.46,0.827-0.789,0.682-0.729-0.542c0.128-2.543-0.763-2.689-2.467-0.752c-0.385-0.146-0.768-0.294-1.152-0.439
	C311.412,447.192,313.878,442.488,316.994,439.25z M306.549,517.21l-0.016,0.015c0.641-1.345,1.231-0.759,1.855-1.254
	c1.016-0.805,2.43-1.554,2.612-3.364c0.189-1.885-1.374,0.222-2.031,0.017c-0.331-0.103-0.821,0.173-1.249,0.406
	c-0.683,0.37-1.359,1.066-1.759,2.22C305.462,516.693,306.086,516.886,306.549,517.21z"/>
<path fill-rule="evenodd" clip-rule="evenodd" fill="#6C8DB1" d="M248.785,404.685c0.067,0.892-0.108,1.979,0.245,2.641
	c1.448,2.706-0.981,2.848-1.738,3.979c-0.473,0.706-0.454-0.57-0.783-0.766c-0.435-0.257-0.787-0.943-1.365-0.459
	c-0.524,0.439-0.474,0.997-0.219,1.658c0.353,0.916,0.664,2.167-0.091,2.712c-0.73,0.527-1.878,0.74-2.68,0.439
	c-1.21-0.453-1.023-1.868-0.474-2.918c0.915-1.749,0.829-3.932,1.8-5.663c0.323-0.577,0.537-1.529-0.118-2.253
	c-0.708-0.017-0.858,0.858-1.303,1.26c-0.786,0.71-1.415,2.116-2.057-0.368c-0.459-1.775-4.629-1.572-5.465,0.107
	c-0.647,1.302-0.051,1.975,0.899,2.465c0.594,0.306,1.77-0.036,1.485,1.378c-0.212,1.053-1.181,0.849-1.903,0.911
	c-0.073,0.007-0.151-0.016-0.22,0.009c-0.694,0.238-1.887-0.546-1.933,0.884c-0.017,0.554,0.524,2.537,1.937,1.314
	c0.197-0.17,0.456-0.03,0.476,0.284c0.016,0.243-0.051,0.556-0.176,0.741c-0.926,1.364-1.929,0.699-2.707-0.108
	c-1.7-1.765-1.863-0.595-1.791,1.248l0.012-0.013c-1.327,1.562-2.759-0.241-4.125,0.18c-0.085,0.026-0.318-0.205-0.306-0.256
	c0.803-3.478-1.371-2.51-2.781-2.971c-1.076-0.352-2.206-0.943-2.784-2.423c-0.463-1.185-0.94-2.578-1.96-0.26
	c-0.561,1.272-1.718,0.394-2.159-0.331c-1.329-2.187-4.343-1.63-5.044-4.811c-0.128-0.583-0.331,0.287-0.531,0.334
	c-1.118,0.263-1.677,1.215-2.058,2.405c0-1.989,0-3.979,0-5.968c0.209,0.087,0.42,0.256,0.627,0.25
	c0.696-0.021,1.195,1.522,1.936,0.516c0.649-0.881,0.197-1.77-0.266-2.687c-0.975-1.928-0.031-4.884,0.583-5.288
	c3.452-2.274-0.225-7.093,2.526-9.376c0.194-0.16-0.297-0.72-0.613-0.957c-0.479-0.357-0.682-0.911-0.778-1.562
	c-0.403-2.73-1.907-3.91-4.014-4.228c0-8.501,0-17.001,0-25.502c1.59-0.013,3.197-0.071,3.479,2.574
	c0.064,0.608,0.061,1.362,0.834,1.239c0.706-0.112,0.657-0.775,0.665-1.432c0.015-1.325,0.448-2.262,1.655-2.361l0.01,0.007
	c0.156,0.622,0.13,1.581,0.867,1.463c0.603-0.096,0.413-0.952,0.429-1.529c0.294-0.018,0.587-0.035,0.882-0.052
	c1.012,0.132,1.407,1.495,2.498,1.891c0.111-2.196-0.632-4.147-1.622-5.379c-2.762-3.44-2.801-7.371-2.151-11.616l-0.005,0.006
	c0.558-0.393,1.96,0.076,1.686-0.772c-0.746-2.309,0.671-1.643,1.428-1.952c0.096,0.207,0.192,0.412,0.288,0.618
	c0.068-0.081,0.135-0.162,0.202-0.243c-0.167-0.12-0.334-0.24-0.501-0.361c0.722-0.343,1.122-2.638,2.247-0.558
	c0.496,0.14,0.609,0.705,0.882,1.118c1.933,2.932,0.812,6.695,1.829,9.835c0.645,1.992-0.614,3.571-0.413,5.484
	c0.442,4.22,2.051,7.681,4.185,10.882c0.413,0.621,1.032,1.107,0.984,2.033c-0.122,2.292,1.057,3.575,2.34,4.898
	c1.523,1.57,2.992,3.241,4.333,5.036c0.536,0.718,1.761,2.148,0.586,2.84c-2.255,1.328-1.076,2.858-0.61,4.439
	c0.194,0.661,1.005,1.2,0.745,1.875c-1.367,3.546,0.542,6.21,1.508,9.131c-0.5,1.46-1.299,1.558-2.507,1.215
	c-1.398-0.397-1.806,1.461-2.086,2.455c-0.318,1.127,0.868,1.072,1.57,1.178c0.911,0.137,1.831,0.244,2.717,1.062
	c-1.011,0.835-2.277,0.4-2.855,1.704c-0.245,0.553-0.69,1.03,0.124,1.473c1.491,0.811,4.157-0.355,4.171-2.182
	c0.019-2.681,0.995-1.269,1.804-0.944C242.718,400.368,244.472,404.29,248.785,404.685z M227.498,376.184
	c1.541,0.207,2.187-1.692,3.462-2.184c1.654-0.637,1.091-2.198,0.821-3.604c-0.363-1.885-1.183-0.776-1.988-0.599
	c-0.857,0.189-1.812,0.701-2.636-0.404c-0.824-1.104-1.388-0.003-2.057,0.496c-0.699,0.523-0.749,0.95-0.515,1.943
	c0.479,2.039,1.2,3.659,2.927,4.368c-0.336,0.138-0.717,0.234-0.578,0.847c0.015,0.066,0.112,0.158,0.16,0.15
	C227.608,377.093,227.455,376.579,227.498,376.184z M224.98,399.028c-0.189,0.04-0.874,0.045-1.452,0.349
	c-0.83,0.435-0.81,1.32-0.144,1.872c0.884,0.73,1.874,1.298,2.864,1.799c0.55,0.278,0.956-0.138,1.123-0.867
	C227.73,400.607,226.772,399.028,224.98,399.028z M215.693,377.864c-0.387-1.064-0.754-2.309-1.72-2.836
	c-0.601-0.327-0.894,0.522-0.936,1.111c-0.122,1.674,1.182,1.791,1.964,2.429C215.373,378.872,215.661,378.498,215.693,377.864z"/>
<path fill-rule="evenodd" clip-rule="evenodd" fill="#6C8DB1" d="M388.835,365.108c0.452-0.288,1.053-0.299,1.588-1.843
	c0.813-2.343,1.501-4.876,1.575-6.196c0.055-0.978-1.238,1.646-2.021,3.028c-2.025,3.587-4.067,7.543-6.069,10.425
	c-1.337,1.92-2.047,3.501-1.853,4.773c0.255,1.668-0.813,3.462-2.216,5.126c-1.153,1.367-2.187,2.438-3.125,3.079
	c-2.13,1.445-4.706,4.393-7.969,11.423c-1.295,2.791-1.472,2.003-2.078,2.652c-1.275,1.366-0.459-1.343-0.23-2.758
	c0.197-1.208,1.27-3.837-0.176-2.011c-0.138,0.172-0.208-0.281-0.16-0.388c2.616-5.851,0.027-5.333,3.495-11.962
	c-0.811-0.02-1.649,3.061-2.423,3.5c1.681-4.505,3.171-9.218,2.554-10.344c-0.438-0.796-0.517-3.482-3.515,2.062
	c15.226-33.791,30.449-67.583,45.677-101.373c1.391-0.567,2.172,0.411,4.776-3.302c1.389-1.978,0.794,1.558,2.774-1.562
	c-3.117,7.228-3.271,8.543-0.777,6.528c1.057-0.851,1.901-1.546,0.551,2.276c-0.821,2.33-0.966,3.794-0.52,4.205
	c0.655,0.604-0.054,2.686-1.807,5.76c-1.623,2.842-1.696,3.549-1.185,4.075c0.626,0.643,2.146-0.644,2.055,1.537l0.003-0.012
	c-1.642,3.764-3.323,7.446-5.142,10.231c-0.561,2.144,1.958-1.677,0.185,2.486c-0.783,1.833-2.019,4.464-2.183,3.572
	c-0.16-0.844-2.892,3.095-0.486-2.538c0.691-1.616,0.763-2.276,0.521-2.502c-0.269-0.25-0.756-0.041-1.569,1.629
	c-1.437,2.939-2.792,4.583-4.182,7.239c-0.614,1.174-1.011,1.727-1.264,1.573c-0.279-0.168-0.579-1.224-1.09,0.304
	c-0.888,2.653-3.066,6.96-2.44,7.965c0.305,0.487,0.719,0.746,1.015,1.247c0.217,0.364,0.763,0.291,0.003,2.25
	c-0.667,1.708-1.609,3.085-2.262,3.819c-1.661,1.873-2.764,3.479-2.225,5.203c0.095,0.303,0.032,1.154-0.313,1.687
	c-2.216,3.409-2.205,7.068-5.288,10.892c1.919-0.756,2.423-0.292-0.732,4.596c-1.248,1.933-2.079,4.509-1.387,4.228
	c0.933-0.378,1.951-0.332,3.902-4.147c2.176-4.25,2.307-3.008,1.774-1.035c-1.145,4.252-0.23,4.594,0.223,5.848
	c0.448,1.237-1.572,7.485-3.521,11.486c-2.371,4.864-3.458,5.38-4.427,5.509c-0.632,0.084-0.717-1.104-2.172,1.01
	c-0.636,0.924-0.635,0.087-0.036-1.148c1.685-3.481,2.424-6.671,4.167-10.102L388.835,365.108z M384.734,339.724
	c0.421-0.328,0.723-0.534,1.055-0.829c1.304-1.158,3.332-4.337,4.457-6.691c1.492-3.124,2.669-5.345,4.055-7.287
	c0.011-0.015,0.068-0.272,0.118-0.432c1.192-3.766,2.886-7.161,4.809-10.478c0.666-1.148,1.587-2.608,1.676-3.772
	c0.074-0.999-0.658-0.069-1.399,1.128c-2.295,3.707-3.279,3.54-4.521,4.148c-0.608,0.296-0.415-0.562,0.615-2.526
	c0.565-1.075,1.477-2.604,1.138-2.984c-0.282-0.314-1.116,1.095-1.813,2.629c-0.966,2.127-2.059,4.418-2.779,6.402
	c-1.705,4.705-3.563,9.104-6.034,13.414c-0.85,1.48-1.796,3.49-1.623,4.177C384.696,337.448,385.284,337.544,384.734,339.724z
	 M405.968,290.65c-1.561,2.981-2.572,6.355-1.994,6.516c0.651,0.182,2.813-3.503,4.217-6.267c0.937-1.849,2.24-5.715,1.727-5.936
	C409.311,284.707,408.035,285.54,405.968,290.65z M378.813,373.555c0.474-1.561,2.175-4.677,1.399-4.801
	c-0.688-0.11-2.095,2.699-3.11,4.733c-1.342,2.693-0.886,3.152-0.555,3.434C376.933,377.246,377.782,375.93,378.813,373.555z
	 M379.321,362.688c-0.464-0.121-1.055,1.282-1.506,2.493c-0.896,2.395-3.006,6.061-2.523,6.935c0.314,0.569,1.988-2.347,2.999-4.596
	C379.483,364.864,379.221,363.938,379.321,362.688z"/>
<path fill-rule="evenodd" clip-rule="evenodd" fill="#274063" d="M301.58,379.76c0.248-0.015,0.497-0.021,0.745-0.021
	c0.604,1.51,1.689,1.628,3.043,1.091c1.305-0.52,1.922-3.719,4.258-0.635c0.804,1.062,3.309,0.959,3.049,3.39
	c-0.023,0.229,0.023,0.528,0.158,0.702c2.408,3.085,2.424,3.123-2.047,4.352c-1.334,0.367-2.57,0.683-1.887,2.402
	c0.525,1.32,0.931,3.115,3.059,2.372c1.263-0.44,2.69-1.671,3.746-0.386c1.149,1.398-0.61,2.693-0.996,4.059
	c-0.273,0.964-0.733,1.873-1.84,2.184l-0.082-0.082c-0.162-0.717-0.205-2.257-1.264-0.952c-1.27,1.563-1.439,4.261-4.293,3.923
	c-2.684-0.316-4.016-2.704-5.574-4.451c-1.257-1.408-2.494-2.258-4.137-1.672c-4.533,1.614-4.838-2.324-5.908-4.65
	c-1.212-2.637,0.84-4.44,2.867-5.775c2.053-1.352,4.703-1.76,6.311-3.816C301.218,381.244,301.325,380.444,301.58,379.76z"/>
<path fill-rule="evenodd" clip-rule="evenodd" fill="#6C8DB1" d="M299.34,439.05c1.013,0.317,1.948-0.021,2.926-0.26
	c3.828-0.94,6.339,1.255,5.82,5.208c-0.459,3.492,0.72,5.774,4.186,6.787c1.546,0.451,2.956,0.742,3.516-1.376
	c0.987,0.884,0.741,1.817,0.829,2.65c0.616,5.788,0.606,5.825-5.41,5.563c-1.392-0.061-2.371,0.635-3.418,1.291
	c-1.169,0.731-2.294,1.574-3.806,1.081c-0.001,0.001-0.128-0.159-0.128-0.159l0.065,0.193c0.73,3.294-0.831,3.649-3.478,2.775
	c-3.042-1.005-4.907-3.253-6.435-5.88c-0.453-0.781-0.54-1.549-0.088-2.459c1.327-2.677,0.24-7.254-2.156-8.841
	c-1.772-1.172-3.506-0.949-5.004,0.693c-1.395,1.531-2.803,3.073-5.138,3.993c-0.23-3.303-0.654-6.3-2.567-8.807
	c-0.377-2.364-0.007-4.82-1.078-7.109c-0.661-1.416,0.583-2.011,1.554-2.503c8.396-4.253,15.729-10.307,24.271-14.313
	c0.298,0.391,0.596,0.78,0.894,1.17c-1.052,0.833-2.077,1.707-3.166,2.489c-0.973,0.7-2.673,1.045-2.537,2.396
	c0.335,3.305-1.987,6.04-1.687,9.273c-0.78,0.579-2.17-0.281-2.864,1.339c1.736,0.28,3.222,0.605,4.753-0.015
	c0.5,0.126,1,0.252,1.5,0.378c-0.459,1.467-0.92,2.935-1.379,4.402c-0.123,0.164-0.646,0.081-0.323,0.521
	C299.108,439.372,299.224,439.212,299.34,439.05z"/>
</svg>
